<?xml version="1.0" encoding="UTF-8"?>
<svg version="1.1" xmlns="http://www.w3.org/2000/svg" width="128" height="128">
<path d="M0 0 C0.79921875 0.00902344 1.5984375 0.01804688 2.421875 0.02734375 C3.02515625 0.03894531 3.6284375 0.05054688 4.25 0.0625 C6.30257931 3.51083324 7.3132763 5.37911591 6.9375 9.4375 C6.710625 10.30375 6.48375 11.17 6.25 12.0625 C6.91 12.0625 7.57 12.0625 8.25 12.0625 C8.25 12.7225 8.25 13.3825 8.25 14.0625 C10.15609017 14.30076127 12.06224958 14.53848146 13.96875 14.7734375 C15.40760439 14.95575809 16.84535708 15.14722389 18.28125 15.3515625 C21.66104619 15.82097864 24.68908919 16.04833583 28.125 15.9375 C36.91129115 15.83392879 45.43817316 19.61370429 51.875 25.4375 C53.050625 26.736875 53.050625 26.736875 54.25 28.0625 C55.075 28.949375 55.9 29.83625 56.75 30.75 C65.465907 41.4180502 67.48694407 54.4725487 67.25 67.8125 C67.17620753 72.05556724 67.18367266 75.93760398 68.25 80.0625 C69.1219905 92.27036694 64.92784802 103.65815176 57.25 113.0625 C53.33573809 117.52376403 49.37062638 119.84083712 44.0625 122.25 C43.30291992 122.59804687 42.54333984 122.94609375 41.76074219 123.3046875 C36.32231121 125.72795764 31.23265897 127.6221763 25.25 128.0625 C23.74759766 128.18238281 23.74759766 128.18238281 22.21484375 128.3046875 C14.21713194 128.62879024 6.50173642 127.62207245 -0.75 124.0625 C-2.11413914 122.42095196 -3.44942167 120.7548509 -4.75 119.0625 C-6.89467002 117.82471558 -6.89467002 117.82471558 -9.1875 117.0625 C-13.30862914 115.38702455 -15.78685831 113.44894765 -18.75 110.0625 C-19.513125 109.4025 -20.27625 108.7425 -21.0625 108.0625 C-22.75 106.0625 -22.75 106.0625 -23 103.3125 C-22.9175 102.57 -22.835 101.8275 -22.75 101.0625 C-23.41 101.0625 -24.07 101.0625 -24.75 101.0625 C-27.81080671 89.76666572 -29.65518761 78.41647139 -25.75 67.0625 C-25.09 66.0725 -24.43 65.0825 -23.75 64.0625 C-23.34256535 61.5499863 -23.00993272 59.08962363 -22.75 56.5625 C-22.02027027 49.46790541 -22.02027027 49.46790541 -19.75 46.0625 C-19.09 46.0625 -18.43 46.0625 -17.75 46.0625 C-17.75 45.0725 -17.75 44.0825 -17.75 43.0625 C-15.75 41.375 -15.75 41.375 -13.75 40.0625 C-14.36875 39.093125 -14.9875 38.12375 -15.625 37.125 C-19.92789768 29.52984965 -20.42219112 22.26690566 -18.18359375 13.9609375 C-16.62989488 9.21993638 -14.5711311 6.39374249 -10.75 3.0625 C-10.09 2.4025 -9.43 1.7425 -8.75 1.0625 C-5.80049953 0.06042612 -3.09837394 -0.04556432 0 0 Z " fill="#EA2648" transform="translate(43.75,-0.0625)"/>
<path d="M0 0 C0.79921875 0.00902344 1.5984375 0.01804688 2.421875 0.02734375 C3.02515625 0.03894531 3.6284375 0.05054688 4.25 0.0625 C6.30257931 3.51083324 7.3132763 5.37911591 6.9375 9.4375 C6.710625 10.30375 6.48375 11.17 6.25 12.0625 C6.91 12.0625 7.57 12.0625 8.25 12.0625 C8.25 12.7225 8.25 13.3825 8.25 14.0625 C10.15609017 14.30076127 12.06224958 14.53848146 13.96875 14.7734375 C15.40760439 14.95575809 16.84535708 15.14722389 18.28125 15.3515625 C21.66104619 15.82097864 24.68908919 16.04833583 28.125 15.9375 C36.91129115 15.83392879 45.43817316 19.61370429 51.875 25.4375 C53.050625 26.736875 53.050625 26.736875 54.25 28.0625 C55.075 28.949375 55.9 29.83625 56.75 30.75 C65.465907 41.4180502 67.48694407 54.4725487 67.25 67.8125 C67.17620753 72.05556724 67.18367266 75.93760398 68.25 80.0625 C69.1219905 92.27036694 64.92784802 103.65815176 57.25 113.0625 C53.33573809 117.52376403 49.37062638 119.84083712 44.0625 122.25 C43.30291992 122.59804687 42.54333984 122.94609375 41.76074219 123.3046875 C36.32231121 125.72795764 31.23265897 127.6221763 25.25 128.0625 C23.74759766 128.18238281 23.74759766 128.18238281 22.21484375 128.3046875 C14.21713194 128.62879024 6.50173642 127.62207245 -0.75 124.0625 C-2.11413914 122.42095196 -3.44942167 120.7548509 -4.75 119.0625 C-6.89467002 117.82471558 -6.89467002 117.82471558 -9.1875 117.0625 C-13.30862914 115.38702455 -15.78685831 113.44894765 -18.75 110.0625 C-19.513125 109.4025 -20.27625 108.7425 -21.0625 108.0625 C-22.75 106.0625 -22.75 106.0625 -23 103.3125 C-22.9175 102.57 -22.835 101.8275 -22.75 101.0625 C-23.41 101.0625 -24.07 101.0625 -24.75 101.0625 C-27.81080671 89.76666572 -29.65518761 78.41647139 -25.75 67.0625 C-25.09 66.0725 -24.43 65.0825 -23.75 64.0625 C-23.34256535 61.5499863 -23.00993272 59.08962363 -22.75 56.5625 C-22.02027027 49.46790541 -22.02027027 49.46790541 -19.75 46.0625 C-19.09 46.0625 -18.43 46.0625 -17.75 46.0625 C-17.75 45.0725 -17.75 44.0825 -17.75 43.0625 C-15.75 41.375 -15.75 41.375 -13.75 40.0625 C-14.36875 39.093125 -14.9875 38.12375 -15.625 37.125 C-19.92789768 29.52984965 -20.42219112 22.26690566 -18.18359375 13.9609375 C-16.62989488 9.21993638 -14.5711311 6.39374249 -10.75 3.0625 C-10.09 2.4025 -9.43 1.7425 -8.75 1.0625 C-5.80049953 0.06042612 -3.09837394 -0.04556432 0 0 Z M-2.75 8.0625 C-7.60248431 12.78728735 -10.21352045 15.90108687 -10.8515625 22.64453125 C-10.65107067 27.4177791 -8.33233482 31.25994332 -5.234375 34.7890625 C-3.82296912 36.27954009 -3.82296912 36.27954009 -1.75 36.0625 C-1.75 36.7225 -1.75 37.3825 -1.75 38.0625 C-1.09 38.0625 -0.43 38.0625 0.25 38.0625 C0.25 38.7225 0.25 39.3825 0.25 40.0625 C0.91 40.619375 1.57 41.17625 2.25 41.75 C4.25 44.0625 4.25 44.0625 4.8125 47.5625 C4.25 51.0625 4.25 51.0625 2.1875 53.25 C0.08936827 54.54459192 -2.03977409 55.78946358 -4.1875 57 C-11.06703093 60.87999575 -16.3080299 65.34713757 -18.75 73.0625 C-19.65642055 83.33183281 -20.08468037 93.94336758 -13.35546875 102.20703125 C-7.36062962 109.13537331 -2.15704002 112.06050185 6.9609375 112.8125 C10.49936956 113.19894992 13.81971345 114.1269673 17.25 115.0625 C11.805 115.5575 11.805 115.5575 6.25 116.0625 C7.12097223 118.35291352 7.12097223 118.35291352 9.9296875 119.16015625 C21.38307764 122.27278345 30.64823915 119.2242235 40.71875 113.7109375 C50.57651409 107.66799307 57.11346146 99.23641855 60.25 88.0625 C60.4179024 84.81988022 60.4179024 84.81988022 60.25 82.0625 C59.4146875 83.17625 59.4146875 83.17625 58.5625 84.3125 C56.31972822 86.97957995 54.02925025 88.97806232 51.25 91.0625 C51.53746094 90.4953125 51.82492188 89.928125 52.12109375 89.34375 C53.23081337 87.1012716 54.28513074 84.84380665 55.3125 82.5625 C55.82490234 81.43328125 55.82490234 81.43328125 56.34765625 80.28125 C60.32458664 70.50247744 59.86179056 56.00055826 56.25 46.25 C55.61932086 44.83754152 54.96859572 43.4323231 54.25 42.0625 C53.59 42.0625 52.93 42.0625 52.25 42.0625 C51.92 40.4125 51.59 38.7625 51.25 37.0625 C50.59 37.0625 49.93 37.0625 49.25 37.0625 C48.755 35.5775 48.755 35.5775 48.25 34.0625 C47.59 34.0625 46.93 34.0625 46.25 34.0625 C45.755 32.5775 45.755 32.5775 45.25 31.0625 C39.68196033 27.18991878 34.06263596 24.36528382 27.25 24.0625 C28.5918344 28.08800319 30.6727573 28.94535636 34.25 31.0625 C34.91 31.0625 35.57 31.0625 36.25 31.0625 C36.25 31.7225 36.25 32.3825 36.25 33.0625 C36.91 33.0625 37.57 33.0625 38.25 33.0625 C40.21818336 38.88504243 41.65214229 43.89631819 41.25 50.0625 C40.87488281 49.26585937 40.49976563 48.46921875 40.11328125 47.6484375 C35.04654086 37.15760474 29.93398207 30.21595017 19.25 25.0625 C15.79627558 23.94378264 12.29002928 23.11123258 8.7331543 22.39208984 C4.91485529 21.60554003 1.99034598 20.93236482 -0.75 18.0625 C-1.32421875 16.08984375 -1.32421875 16.08984375 -1.4375 14 C-1.48507813 10.27980375 -1.48507813 10.27980375 -2.75 8.0625 Z " fill="#A4001A" transform="translate(43.75,-0.0625)"/>
<path d="M0 0 C1 2 1 2 1.1875 5.875 C1.60873396 9.1103108 1.8442597 9.83536025 4.1875 12.3125 C7.48151631 14.15304149 10.93961612 14.59436817 14.625 15.25 C24.53110193 17.20611516 32.09098725 21.86728585 38.0625 30.0625 C40.49501837 33.90113264 42.42595831 37.74082838 44 42 C44.40214229 35.83381819 42.96818336 30.82254243 41 25 C40.34 25 39.68 25 39 25 C39 24.34 39 23.68 39 23 C38.443125 22.731875 37.88625 22.46375 37.3125 22.1875 C34.78774666 20.89100504 32.36285516 19.57523677 30 18 C30 17.34 30 16.68 30 16 C37.28989035 16.16567933 43.1519482 19.84202557 49 24 C49 24.66 49 25.32 49 26 C50.485 26.495 50.485 26.495 52 27 C52 27.66 52 28.32 52 29 C52.66 29 53.32 29 54 29 C54.495 30.485 54.495 30.485 55 32 C54.505 32.99 54.505 32.99 54 34 C53.34 34 52.68 34 52 34 C52 35.32 52 36.64 52 38 C50.02 37.505 50.02 37.505 48 37 C47.67 39.31 47.34 41.62 47 44 C46.34 44 45.68 44 45 44 C45 44.99 45 45.98 45 47 C44.01 47 43.02 47 42 47 C42 46.34 42 45.68 42 45 C38.01803543 43.94595055 35.01804691 44.15901344 31 45 C30.67 44.34 30.34 43.68 30 43 C28.68 43.66 27.36 44.32 26 45 C24.68 42.69 23.36 40.38 22 38 C21.67 38.33 21.34 38.66 21 39 C21.08655942 41.31322597 21.19471363 43.6256537 21.3125 45.9375 C21.38656362 51.96157826 20.85746524 56.61400329 17.38671875 61.65625 C13.62730044 65.34798648 9.24172066 67.96156146 4.65039062 70.51489258 C0.56475471 72.80799914 -2.13194383 74.49138324 -4 79 C-5.0607516 84.8580246 -4.20487644 90.08905218 -1.27734375 95.24609375 C1.48522613 99.0393472 5.12046433 101.41364289 9 104 C3.38187213 104.56181279 -0.39810354 103.03831774 -5 100 C-11.59983615 94.45193057 -14.96790713 89.65370176 -16 81 C-16.70501683 72.24529729 -17.20578025 64.55359567 -11.91015625 57.1171875 C-7.06033819 51.74172454 -1.54938657 48.03508158 5 45 C7.34813734 43.06832602 7.34813734 43.06832602 7.375 39.625 C6.94379728 35.45670704 6.104423 34.61935691 3 32 C3 31.34 3 30.68 3 30 C2.34 30 1.68 30 1 30 C1 29.34 1 28.68 1 28 C0.13375 27.690625 0.13375 27.690625 -0.75 27.375 C-4.9568961 24.80411905 -6.68346082 21.24354676 -7.875 16.5625 C-8.06211985 11.2295844 -7.05079487 7.51051763 -4 3.125 C-2 1 -2 1 0 0 Z " fill="#E42845" transform="translate(41,8)"/>
<path d="M0 0 C6.42464073 6.23537145 8.16309028 10.19129785 8.3125 19.0625 C8.29675387 23.81258131 7.69725191 27.5573924 6 32 C5.34 32 4.68 32 4 32 C3.690625 32.639375 3.38125 33.27875 3.0625 33.9375 C2 36 2 36 1 37 C2.98 37 4.96 37 7 37 C7 36.34 7 35.68 7 35 C7.61875 34.938125 8.2375 34.87625 8.875 34.8125 C11.23787497 34.19306477 11.23787497 34.19306477 12.0625 31.6875 C12.371875 30.800625 12.68125 29.91375 13 29 C13.95824253 27.63634717 14.94721175 26.29205831 16 25 C20.73320147 31.41272458 21.51651247 38.12099623 21 46 C19.16190965 52.12156963 15.91345579 56.90545351 11 61 C10.05125 61.886875 9.1025 62.77375 8.125 63.6875 C2.62023833 67.49475807 -4.48546939 67.94966698 -11 68 C-16.47667131 66.68086821 -19.84952063 62.41067111 -23 58 C-25.61297534 53.52061371 -25.89551944 48.04678326 -25 43 C-22.33432361 37.96555065 -19.30937866 35.5418999 -14.4375 32.6875 C-13.86064453 32.34138672 -13.28378906 31.99527344 -12.68945312 31.63867188 C-10.15181992 30.13716572 -7.80544673 28.93514891 -5 28 C-3.91568906 26.25132517 -3.91568906 26.25132517 -3 24 C-2.48824219 23.15566406 -1.97648437 22.31132813 -1.44921875 21.44140625 C0.41724832 17.00917583 0.33506266 13.36970705 0.1875 8.625 C0.17396484 7.79355469 0.16042969 6.96210937 0.14648438 6.10546875 C0.11139059 4.07002934 0.05759228 2.03492709 0 0 Z " fill="#EDAA24" transform="translate(61,44)"/>
<path d="M0 0 C3 1 3 1 4 3 C4.99 3 5.98 3 7 3 C9.46808821 7.93617641 8.72606775 14.51166732 7.22265625 19.6640625 C3.79525695 26.56266174 -1.81999302 29.88512089 -8.34960938 33.51416016 C-12.43473422 35.80842645 -15.1318275 37.49110246 -17 42 C-18.0607516 47.8580246 -17.20487644 53.08905218 -14.27734375 58.24609375 C-11.51477387 62.0393472 -7.87953567 64.41364289 -4 67 C-9.61812787 67.56181279 -13.39810354 66.03831774 -18 63 C-24.59983615 57.45193057 -27.96790713 52.65370176 -29 44 C-29.81426912 33.88863282 -29.85149576 26.05866406 -23 18 C-19.87157401 14.63092585 -18.80809822 14.05299005 -14.1875 13.75 C-12.6096875 13.87375 -12.6096875 13.87375 -11 14 C-11 14.66 -11 15.32 -11 16 C-10.01 16 -9.02 16 -8 16 C-8.33 14.68 -8.66 13.36 -9 12 C-6.39417629 11.06934867 -5.35801776 10.85082593 -2.75 11.9375 C-2.1725 12.288125 -1.595 12.63875 -1 13 C-0.67 11.35 -0.34 9.7 0 8 C1.32 8.33 2.64 8.66 4 9 C4.33 8.01 4.66 7.02 5 6 C3.35 6.33 1.7 6.66 0 7 C-0.66 5.68 -1.32 4.36 -2 3 C-1.34 2.34 -0.68 1.68 0 1 C0 0.67 0 0.34 0 0 Z " fill="#E92747" transform="translate(54,45)"/>
<path d="M0 0 C1 2 1 2 1.1875 5.875 C1.60873396 9.1103108 1.8442597 9.83536025 4.1875 12.3125 C7.52490401 14.1746747 11.08658599 14.67085858 14.8125 15.375 C21.36029167 16.61790001 25.86528691 18.80257581 31 23 C30.01 23.495 30.01 23.495 29 24 C28.31270746 26.11846285 28.31270746 26.11846285 27.875 28.5625 C27.62363281 29.80193359 27.62363281 29.80193359 27.3671875 31.06640625 C27.18542969 32.02353516 27.18542969 32.02353516 27 33 C26.01 33 25.02 33 24 33 C24 31.02 24 29.04 24 27 C23.34 28.32 22.68 29.64 22 31 C20.68 30.67 19.36 30.34 18 30 C18.99 27.03 19.98 24.06 21 21 C19.35 20.34 17.7 19.68 16 19 C16 18.34 16 17.68 16 17 C15.34 17 14.68 17 14 17 C14 18.65 14 20.3 14 22 C15.32 21.67 16.64 21.34 18 21 C17.67 22.32 17.34 23.64 17 25 C14.69 24.34 12.38 23.68 10 23 C10.33 20.69 10.66 18.38 11 16 C10.401875 16.185625 9.80375 16.37125 9.1875 16.5625 C7 17 7 17 4 16 C4 16.99 4 17.98 4 19 C5.32 19.33 6.64 19.66 8 20 C7.67 20.66 7.34 21.32 7 22 C5.35 21.67 3.7 21.34 2 21 C2 21.99 2 22.98 2 24 C3.65 24.33 5.3 24.66 7 25 C5 27 5 27 2.1875 28 C-1 28 -1 28 -3.75 25.375 C-7.35900289 20.28747012 -8.46871904 16.499012 -7.6171875 10.2890625 C-6.57575967 6.42655167 -4.58726774 4.02899638 -2 1 C-1.34 0.67 -0.68 0.34 0 0 Z " fill="#D22F3C" transform="translate(41,8)"/>
<path d="M0 0 C7.28989035 0.16567933 13.1519482 3.84202557 19 8 C19 8.66 19 9.32 19 10 C19.99 10.33 20.98 10.66 22 11 C22 11.66 22 12.32 22 13 C22.66 13 23.32 13 24 13 C24.33 13.99 24.66 14.98 25 16 C23.68 16.33 22.36 16.66 21 17 C21 15.35 21 13.7 21 12 C20.01 12 19.02 12 18 12 C18.33 13.32 18.66 14.64 19 16 C17.68 15.67 16.36 15.34 15 15 C15.33 13.68 15.66 12.36 16 11 C15.34 11 14.68 11 14 11 C13.01 11 12.02 11 11 11 C11 10.34 11 9.68 11 9 C10.34 9 9.68 9 9 9 C9 8.34 9 7.68 9 7 C8.443125 6.731875 7.88625 6.46375 7.3125 6.1875 C4.78774666 4.89100504 2.36285516 3.57523677 0 2 C0 1.34 0 0.68 0 0 Z " fill="#DA2740" transform="translate(71,24)"/>
<path d="M0 0 C-0.30944791 3.14783217 -0.5214656 4.58628699 -2.9609375 6.6953125 C-4.15589844 7.40300781 -4.15589844 7.40300781 -5.375 8.125 C-8.27735635 9.87397695 -10.70304192 11.49557474 -13 14 C-12.40300665 9.27551812 -11.876255 5.21850059 -8.1875 1.9375 C-4.99987002 -0.00007901 -3.6273259 -0.53343028 0 0 Z " fill="#D8233E" transform="translate(42,46)"/>
<path d="M0 0 C0.99 0.66 1.98 1.32 3 2 C2.79375 2.5775 2.5875 3.155 2.375 3.75 C1.91338739 6.51967567 2.57055055 7.64561267 4 10 C3.34 10 2.68 10 2 10 C2 11.65 2 13.3 2 15 C0.25 15.75 0.25 15.75 -2 16 C-4.25 14.4375 -4.25 14.4375 -6 12 C-6.25 8.75 -6.25 8.75 -6 6 C-5.34 6 -4.68 6 -4 6 C-4 7.98 -4 9.96 -4 12 C-3.34 11.67 -2.68 11.34 -2 11 C-1.30906104 8.42048126 -1.30906104 8.42048126 -0.875 5.4375 C-0.62363281 3.91962891 -0.62363281 3.91962891 -0.3671875 2.37109375 C-0.24601562 1.58863281 -0.12484375 0.80617188 0 0 Z " fill="#D82F40" transform="translate(40,16)"/>
<path d="M0 0 C1.19968323 3.59904969 1.00437134 5.42890191 0 9 C-0.33 9.66 -0.66 10.32 -1 11 C-1.99 11 -2.98 11 -4 11 C-4 11.99 -4 12.98 -4 14 C-3.34 14.33 -2.68 14.66 -2 15 C-3.65 15 -5.3 15 -7 15 C-7.33 15.66 -7.66 16.32 -8 17 C-8.35515446 12.69954273 -7.41270705 10.43014201 -5.125 6.8125 C-4.59132813 5.95269531 -4.05765625 5.09289062 -3.5078125 4.20703125 C-2 2 -2 2 0 0 Z " fill="#DF2142" transform="translate(33,61)"/>
<path d="M0 0 C1.65 0 3.3 0 5 0 C6.1577506 3.47325181 6.06866652 6.36067448 6 10 C5.01 10.495 5.01 10.495 4 11 C2.68 7.37 1.36 3.74 0 0 Z " fill="#B3071F" transform="translate(80,40)"/>
<path d="M0 0 C3.3125 0.1875 3.3125 0.1875 7 1 C9 3.375 9 3.375 10 6 C9.67 6.99 9.34 7.98 9 9 C9 8.34 9 7.68 9 7 C8.443125 6.731875 7.88625 6.46375 7.3125 6.1875 C4.78774666 4.89100504 2.36285516 3.57523677 0 2 C0 1.34 0 0.68 0 0 Z " fill="#CF1F39" transform="translate(71,24)"/>
<path d="M0 0 C0.33 0.99 0.66 1.98 1 3 C1.66 3 2.32 3 3 3 C1.50902342 6.7952131 -0.75700849 8.61042731 -4 11 C-4.66 10.67 -5.32 10.34 -6 10 C-5.65066406 9.44570312 -5.30132812 8.89140625 -4.94140625 8.3203125 C-4.48636719 7.59585938 -4.03132813 6.87140625 -3.5625 6.125 C-3.11003906 5.40570313 -2.65757813 4.68640625 -2.19140625 3.9453125 C-0.97538499 2.0222453 -0.97538499 2.0222453 0 0 Z " fill="#B70422" transform="translate(99,81)"/>
<path d="M0 0 C0.33 0 0.66 0 1 0 C1.90413673 3.83724172 2.10576898 7.37502274 2.0625 11.3125 C2.05347656 12.38113281 2.04445313 13.44976562 2.03515625 14.55078125 C2.02355469 15.35902344 2.01195313 16.16726562 2 17 C1.01 17.33 0.02 17.66 -1 18 C-0.505 9.09 -0.505 9.09 0 0 Z " fill="#B5051F" transform="translate(102,59)"/>
<path d="M0 0 C0.99 0.33 1.98 0.66 3 1 C3 1.99 3 2.98 3 4 C4.32 3.67 5.64 3.34 7 3 C6.67 4.32 6.34 5.64 6 7 C3.69 6.34 1.38 5.68 -1 5 C-0.67 3.35 -0.34 1.7 0 0 Z " fill="#D82F3E" transform="translate(52,26)"/>
<path d="M0 0 C1.98 0 3.96 0 6 0 C6 3.10551666 5.4606285 4.35261084 4 7 C3.34 5.35 2.68 3.7 2 2 C1.01 2.99 0.02 3.98 -1 5 C-0.67 3.35 -0.34 1.7 0 0 Z " fill="#E73E40" transform="translate(75,68)"/>
<path d="M0 0 C2.00773956 2.00773956 2.99392854 3.36873617 4 6 C3.625 8.25 3.625 8.25 3 10 C3 9.01 3 8.02 3 7 C1.68 7.33 0.36 7.66 -1 8 C-0.67 5.36 -0.34 2.72 0 0 Z " fill="#DB2541" transform="translate(80,41)"/>
<path d="M0 0 C2 3 2 3 2 6 C-0.02045442 5.39816251 -2.02111039 4.72693904 -4 4 C-4.33 3.34 -4.66 2.68 -5 2 C-3.35 2 -1.7 2 0 2 C0 1.34 0 0.68 0 0 Z " fill="#EB2548" transform="translate(52,39)"/>
<path d="M0 0 C2 2 2 2 2.125 4.625 C2.08375 5.40875 2.0425 6.1925 2 7 C1.01 7.33 0.02 7.66 -1 8 C-1.33 7.01 -1.66 6.02 -2 5 C-1.34 5 -0.68 5 0 5 C0 3.35 0 1.7 0 0 Z " fill="#D6213C" transform="translate(100,51)"/>
<path d="M0 0 C1.32 0.66 2.64 1.32 4 2 C4 2.66 4 3.32 4 4 C2.68 4.33 1.36 4.66 0 5 C-0.5625 3.0625 -0.5625 3.0625 -1 1 C-0.67 0.67 -0.34 0.34 0 0 Z " fill="#D92B3E" transform="translate(72,32)"/>
<path d="M0 0 C1.98 0 3.96 0 6 0 C5.67 1.65 5.34 3.3 5 5 C3.35 3.35 1.7 1.7 0 0 Z " fill="#C92C39" transform="translate(36,31)"/>
<path d="M0 0 C0.66 0 1.32 0 2 0 C2 2.31 2 4.62 2 7 C1.01 7 0.02 7 -1 7 C-0.67 4.69 -0.34 2.38 0 0 Z " fill="#E22B44" transform="translate(39,23)"/>
</svg>
