<?xml version="1.0" encoding="UTF-8"?>
<svg version="1.1" xmlns="http://www.w3.org/2000/svg" width="128" height="128">
<path d="M0 0 C0.70125 0.928125 1.4025 1.85625 2.125 2.8125 C6.10229329 7.86303116 12.587982 11.20338258 18.77734375 12.6484375 C23.68471637 13.18378724 28.60832553 13.28200718 33.54296875 13.34179688 C39.39821156 13.55196001 39.39821156 13.55196001 42.4921875 15.85546875 C45.35604503 19.92867544 45.16062915 23.85945692 45.16796875 28.640625 C45.17296135 29.77948151 45.17296135 29.77948151 45.17805481 30.94134521 C45.18312096 32.55529171 45.18546323 34.16924869 45.18530273 35.78320312 C45.18745494 38.19940744 45.20551646 40.6151286 45.22460938 43.03125 C45.25911841 52.8651885 44.59596816 62.28855633 43 72 C42.34 72 41.68 72 41 72 C40.855625 72.94875 40.71125 73.8975 40.5625 74.875 C40 78 40 78 39 80 C38.34 80 37.68 80 37 80 C36.7525 80.86625 36.505 81.7325 36.25 82.625 C34.92199976 86.21060064 33.31369152 88.96327987 31 92 C30.34 92 29.68 92 29 92 C28.7215625 93.051875 28.7215625 93.051875 28.4375 94.125 C26.72435149 97.55129703 24.68110978 99.20797134 21.7421875 101.5859375 C19.06336859 103.76022549 16.71912975 106.22555258 14.375 108.75 C13 110 13 110 11 110 C11 110.66 11 111.32 11 112 C9.35 112.66 7.7 113.32 6 114 C6 114.66 6 115.32 6 116 C3.8828125 117.47265625 3.8828125 117.47265625 1.125 119.0625 C0.22007813 119.58972656 -0.68484375 120.11695312 -1.6171875 120.66015625 C-5.81957115 123.02313591 -9.19088727 123.53332417 -14 123 C-17 121.625 -17 121.625 -19 120 C-19 119.34 -19 118.68 -19 118 C-19.99 117.690625 -19.99 117.690625 -21 117.375 C-25.13657928 115.47906783 -28.4578213 112.83103383 -32 110 C-32.60199219 109.52304688 -33.20398438 109.04609375 -33.82421875 108.5546875 C-38.40058457 104.79075516 -42.2009873 100.53342804 -46 96 C-46.48855469 95.43796875 -46.97710937 94.8759375 -47.48046875 94.296875 C-49.75935471 91.65042678 -51.4899213 89.1363173 -53 86 C-53.66 85.67 -54.32 85.34 -55 85 C-56.43433944 82.45690738 -57.76870415 79.92555101 -59.0625 77.3125 C-59.60874023 76.24999023 -59.60874023 76.24999023 -60.16601562 75.16601562 C-60.51470703 74.46798828 -60.86339844 73.76996094 -61.22265625 73.05078125 C-61.53984619 72.41825439 -61.85703613 71.78572754 -62.18383789 71.1340332 C-65.37386638 62.79301045 -64.29810612 52.80906117 -64.35009766 44.02319336 C-64.36671459 41.96415958 -64.3940792 39.90518479 -64.43212891 37.84643555 C-64.48685583 34.86477007 -64.50875657 31.88444348 -64.5234375 28.90234375 C-64.54610687 27.98452621 -64.56877625 27.06670868 -64.59213257 26.12107849 C-64.57728837 21.63574422 -64.46141469 19.62321395 -61.72192383 15.9230957 C-59.11904482 14.08410764 -58.0298609 13.37179671 -54.92578125 13.328125 C-54.17989746 13.30419678 -53.43401367 13.28026855 -52.66552734 13.25561523 C-51.88902832 13.25376221 -51.1125293 13.25190918 -50.3125 13.25 C-48.7069867 13.20602445 -47.10151608 13.16046114 -45.49609375 13.11328125 C-44.72507324 13.0973291 -43.95405273 13.08137695 -43.15966797 13.06494141 C-39.08118446 12.94230105 -35.05177213 12.45745814 -31 12 C-31 11.34 -31 10.68 -31 10 C-29.9275 9.608125 -28.855 9.21625 -27.75 8.8125 C-24.06306514 7.23238506 -22.29923202 5.32992223 -20 2 C-16.64458805 -2.76252019 -16.64458805 -2.76252019 -13.625 -3.875 C-8.28381125 -4.12934232 -4.31070207 -3.20539385 0 0 Z " fill="#7400B3" transform="translate(74,5)"/>
<path d="M0 0 C0.70125 0.928125 1.4025 1.85625 2.125 2.8125 C6.10229329 7.86303116 12.587982 11.20338258 18.77734375 12.6484375 C23.68471637 13.18378724 28.60832553 13.28200718 33.54296875 13.34179688 C39.39821156 13.55196001 39.39821156 13.55196001 42.4921875 15.85546875 C45.35604503 19.92867544 45.16062915 23.85945692 45.16796875 28.640625 C45.17296135 29.77948151 45.17296135 29.77948151 45.17805481 30.94134521 C45.18312096 32.55529171 45.18546323 34.16924869 45.18530273 35.78320312 C45.18745494 38.19940744 45.20551646 40.6151286 45.22460938 43.03125 C45.25911841 52.8651885 44.59596816 62.28855633 43 72 C42.34 72 41.68 72 41 72 C40.855625 72.94875 40.71125 73.8975 40.5625 74.875 C40 78 40 78 39 80 C38.34 80 37.68 80 37 80 C36.7525 80.86625 36.505 81.7325 36.25 82.625 C34.92199976 86.21060064 33.31369152 88.96327987 31 92 C30.34 92 29.68 92 29 92 C28.7215625 93.051875 28.7215625 93.051875 28.4375 94.125 C26.72435149 97.55129703 24.68110978 99.20797134 21.7421875 101.5859375 C19.06336859 103.76022549 16.71912975 106.22555258 14.375 108.75 C13 110 13 110 11 110 C11 110.66 11 111.32 11 112 C9.35 112.66 7.7 113.32 6 114 C6 114.66 6 115.32 6 116 C3.8828125 117.47265625 3.8828125 117.47265625 1.125 119.0625 C0.22007813 119.58972656 -0.68484375 120.11695312 -1.6171875 120.66015625 C-5.81957115 123.02313591 -9.19088727 123.53332417 -14 123 C-17 121.625 -17 121.625 -19 120 C-19 119.34 -19 118.68 -19 118 C-19.99 117.690625 -19.99 117.690625 -21 117.375 C-25.13657928 115.47906783 -28.4578213 112.83103383 -32 110 C-32.60199219 109.52304688 -33.20398438 109.04609375 -33.82421875 108.5546875 C-38.40058457 104.79075516 -42.2009873 100.53342804 -46 96 C-46.48855469 95.43796875 -46.97710937 94.8759375 -47.48046875 94.296875 C-49.75935471 91.65042678 -51.4899213 89.1363173 -53 86 C-53.66 85.67 -54.32 85.34 -55 85 C-56.43433944 82.45690738 -57.76870415 79.92555101 -59.0625 77.3125 C-59.60874023 76.24999023 -59.60874023 76.24999023 -60.16601562 75.16601562 C-60.51470703 74.46798828 -60.86339844 73.76996094 -61.22265625 73.05078125 C-61.53984619 72.41825439 -61.85703613 71.78572754 -62.18383789 71.1340332 C-65.37386638 62.79301045 -64.29810612 52.80906117 -64.35009766 44.02319336 C-64.36671459 41.96415958 -64.3940792 39.90518479 -64.43212891 37.84643555 C-64.48685583 34.86477007 -64.50875657 31.88444348 -64.5234375 28.90234375 C-64.54610687 27.98452621 -64.56877625 27.06670868 -64.59213257 26.12107849 C-64.57728837 21.63574422 -64.46141469 19.62321395 -61.72192383 15.9230957 C-59.11904482 14.08410764 -58.0298609 13.37179671 -54.92578125 13.328125 C-54.17989746 13.30419678 -53.43401367 13.28026855 -52.66552734 13.25561523 C-51.88902832 13.25376221 -51.1125293 13.25190918 -50.3125 13.25 C-48.7069867 13.20602445 -47.10151608 13.16046114 -45.49609375 13.11328125 C-44.72507324 13.0973291 -43.95405273 13.08137695 -43.15966797 13.06494141 C-39.08118446 12.94230105 -35.05177213 12.45745814 -31 12 C-31 11.34 -31 10.68 -31 10 C-29.9275 9.608125 -28.855 9.21625 -27.75 8.8125 C-24.06306514 7.23238506 -22.29923202 5.32992223 -20 2 C-16.64458805 -2.76252019 -16.64458805 -2.76252019 -13.625 -3.875 C-8.28381125 -4.12934232 -4.31070207 -3.20539385 0 0 Z M-10 5 C-10 5.66 -10 6.32 -10 7 C-11.32 7 -12.64 7 -14 7 C-14.33 9.31 -14.66 11.62 -15 14 C-16.32 14.33 -17.64 14.66 -19 15 C-19 15.99 -19 16.98 -19 18 C-19.99 18.33 -20.98 18.66 -22 19 C-21.505 20.485 -21.505 20.485 -21 22 C-23.64 21.34 -26.28 20.68 -29 20 C-29.33 21.32 -29.66 22.64 -30 24 C-30.99 23.67 -31.98 23.34 -33 23 C-35.33299825 22.96045766 -37.66708189 22.95598268 -40 23 C-40 23.99 -40 24.98 -40 26 C-40.66 26 -41.32 26 -42 26 C-41.67 25.01 -41.34 24.02 -41 23 C-43.14576637 22.97314062 -45.29162645 22.95366912 -47.4375 22.9375 C-48.63246094 22.92589844 -49.82742187 22.91429688 -51.05859375 22.90234375 C-53.88873341 22.66098208 -53.88873341 22.66098208 -55 24 C-55.5566058 27.47683251 -55.81347217 30.99379024 -56.125 34.5 C-56.21700684 35.5319751 -56.30901367 36.5639502 -56.40380859 37.62719727 C-57.11489148 46.5226104 -56.88076142 55.13287491 -56 64 C-55.34 64 -54.68 64 -54 64 C-53.855625 64.78375 -53.71125 65.5675 -53.5625 66.375 C-53.12201075 68.96421018 -53.12201075 68.96421018 -52 71 C-51.34 71 -50.68 71 -50 71 C-49.7525 71.886875 -49.505 72.77375 -49.25 73.6875 C-47.94270316 77.15183662 -46.37466761 79.19357464 -44 82 C-43.3503125 83.1446875 -43.3503125 83.1446875 -42.6875 84.3125 C-38.81766562 90.47556957 -33.71260759 95.46104729 -28.1796875 100.1328125 C-24.82142956 103.00959976 -21.61841304 106.05606143 -18.39453125 109.08203125 C-15.1495912 111.68115941 -12.70732906 113.1301075 -8.48828125 112.80859375 C-5.70337352 111.90360804 -3.60887418 110.70485828 -1.1875 109.0625 C-0.39730469 108.53785156 0.39289063 108.01320313 1.20703125 107.47265625 C1.79871094 106.98667969 2.39039063 106.50070313 3 106 C3 105.34 3 104.68 3 104 C3.58483154 103.73896484 4.16966309 103.47792969 4.7722168 103.20898438 C8.73861398 101.05648039 11.65559041 97.6822925 14.8125 94.5 C15.52937988 93.77748047 16.24625977 93.05496094 16.98486328 92.31054688 C24.15636076 84.97349025 30.27120786 78.37275284 32 68 C32.66 68 33.32 68 34 68 C38.06329133 59.87341734 36.11344577 47.81838502 36.0625 38.875 C36.0574735 37.33073062 36.05291264 35.78645966 36.04882812 34.2421875 C36.03791697 30.49475813 36.02071614 26.74738951 36 23 C34.35 23 32.7 23 31 23 C30.67 23.66 30.34 24.32 30 25 C29.01 24.01 29.01 24.01 28 23 C26.6594233 23.30289108 25.32644611 23.64023673 24 24 C22.03295898 23.74633789 22.03295898 23.74633789 19.99609375 23.22265625 C19.25552734 23.03896484 18.51496094 22.85527344 17.75195312 22.66601562 C16.98818359 22.46685547 16.22441406 22.26769531 15.4375 22.0625 C9.79308316 20.5437486 9.79308316 20.5437486 4 20 C3.505 18.515 3.505 18.515 3 17 C2.01 17.33 1.02 17.66 0 18 C-0.495 16.515 -0.495 16.515 -1 15 C-1.99 15.99 -2.98 16.98 -4 18 C-4 17.01 -4 16.02 -4 15 C-3.34 14.67 -2.68 14.34 -2 14 C-4.475 13.505 -4.475 13.505 -7 13 C-6.67 11.02 -6.34 9.04 -6 7 C-7.32 6.34 -8.64 5.68 -10 5 Z " fill="#7200B3" transform="translate(74,5)"/>
<path d="M0 0 C1.32 0.66 2.64 1.32 4 2 C3.67 3.98 3.34 5.96 3 8 C5.475 8.495 5.475 8.495 8 9 C7.34 9.33 6.68 9.66 6 10 C6 10.99 6 11.98 6 13 C7.32 12.01 8.64 11.02 10 10 C10 10.99 10 11.98 10 13 C10.99 12.67 11.98 12.34 13 12 C13.495 13.485 13.495 13.485 14 15 C15.23363281 15.18175781 15.23363281 15.18175781 16.4921875 15.3671875 C22.73758959 16.30471899 28.91492041 17.32925358 35.07421875 18.73046875 C37.07920401 19.19659463 37.07920401 19.19659463 39 18 C39.495 18.99 39.495 18.99 40 20 C40.33 19.34 40.66 18.68 41 18 C42.65 18 44.3 18 46 18 C46.02496844 22.51659796 46.04298537 27.03315791 46.05493164 31.54980469 C46.05991896 33.08203838 46.06671122 34.61426742 46.07543945 36.14648438 C46.20001816 58.59996369 46.20001816 58.59996369 44 63 C43.34 63 42.68 63 42 63 C41.67 64.258125 41.34 65.51625 41 66.8125 C37.52245226 76.94616853 30.01382097 84.2411273 22.625 91.6875 C21.91061768 92.40752197 21.19623535 93.12754395 20.46020508 93.86938477 C15.25632195 99 15.25632195 99 13 99 C13 99.66 13 100.32 13 101 C10.76953125 102.76171875 10.76953125 102.76171875 7.8125 104.6875 C6.84957031 105.33074219 5.88664062 105.97398438 4.89453125 106.63671875 C2 108 2 108 -0.55078125 107.89453125 C-5.52351099 106.0783349 -9.08241714 103.19384448 -12.9375 99.625 C-15.63449386 97.14743611 -18.31054346 94.70348996 -21.1875 92.4375 C-28.95194168 85.70831721 -37.58794116 76.18424844 -40 66 C-40.66 66 -41.32 66 -42 66 C-44.20551699 62.49314349 -44.10553832 60.00204123 -43.6875 55.9375 C-43.58824219 54.89464844 -43.48898438 53.85179687 -43.38671875 52.77734375 C-43 50 -43 50 -42 47 C-42.66 46.67 -43.32 46.34 -44 46 C-43.67 45.34 -43.34 44.68 -43 44 C-42.01 44.33 -41.02 44.66 -40 45 C-40 44.34 -40 43.68 -40 43 C-40.99 43 -41.98 43 -43 43 C-44.25 36.375 -44.25 36.375 -42 33 C-42.66 32.67 -43.32 32.34 -44 32 C-42.68 31.67 -41.36 31.34 -40 31 C-39.67 29.68 -39.34 28.36 -39 27 C-38.01 27.99 -37.02 28.98 -36 30 C-36.99 30 -37.98 30 -39 30 C-38.34 30.66 -37.68 31.32 -37 32 C-36.67 32 -36.34 32 -36 32 C-36 33.65 -36 35.3 -36 37 C-35.01 37 -34.02 37 -33 37 C-32.99589111 37.61407715 -32.99178223 38.2281543 -32.98754883 38.86083984 C-33.20044387 54.77178515 -33.20044387 54.77178515 -27 69 C-26.01 70.6396875 -26.01 70.6396875 -25 72.3125 C-23.00783287 75.12518847 -23.00783287 75.12518847 -20.25 77.75 C-19.5075 78.4925 -18.765 79.235 -18 80 C-18 80.66 -18 81.32 -18 82 C-17.34 82 -16.68 82 -16 82 C-14.8886488 83.1113512 -13.78081064 84.2263652 -12.6875 85.35546875 C-10.53988447 87.44839962 -8.29875389 89.38660946 -6 91.3125 C-5.175 92.00988281 -4.35 92.70726563 -3.5 93.42578125 C-0.70357961 95.18665221 0.76100605 95.34125115 4 95 C4 94.34 4 93.68 4 93 C5.43067595 91.75450548 6.92250342 90.57893578 8.4375 89.4375 C18.55393401 81.47258928 28.80976576 71.57070273 33 59 C33.08378628 56.7161483 33.10729915 54.429899 33.09765625 52.14453125 C33.0962413 51.48289474 33.09482635 50.82125824 33.09336853 50.13957214 C33.08777996 48.03050172 33.07522965 45.92153823 33.0625 43.8125 C33.05748352 42.38086091 33.05292087 40.94922015 33.04882812 39.51757812 C33.0378143 36.01168412 33.02055755 32.5058525 33 29 C32.05535889 28.94956543 31.11071777 28.89913086 30.13745117 28.84716797 C28.88939697 28.77127441 27.64134277 28.69538086 26.35546875 28.6171875 C25.12207764 28.54612793 23.88868652 28.47506836 22.61791992 28.40185547 C16.47385261 27.71941166 10.06658659 25.93154311 6 21 C6 20.34 6 19.68 6 19 C5.01 18.67 4.02 18.34 3 18 C3 16.68 3 15.36 3 14 C2.01 14 1.02 14 0 14 C-0.33 14.99 -0.66 15.98 -1 17 C-1.99 17 -2.98 17 -4 17 C-4 17.99 -4 18.98 -4 20 C-8.89277899 24.09628009 -8.89277899 24.09628009 -12.875 23.75 C-13.57625 23.5025 -14.2775 23.255 -15 23 C-15 23.99 -15 24.98 -15 26 C-16.98 26 -18.96 26 -21 26 C-21 25.01 -21 24.02 -21 23 C-19.68 23.33 -18.36 23.66 -17 24 C-17 23.34 -17 22.68 -17 22 C-18.98 21.67 -20.96 21.34 -23 21 C-23.12375 21.639375 -23.2475 22.27875 -23.375 22.9375 C-23.684375 23.9584375 -23.684375 23.9584375 -24 25 C-24.66 25.33 -25.32 25.66 -26 26 C-26 25.34 -26 24.68 -26 24 C-26.99 24 -27.98 24 -29 24 C-28.67 24.99 -28.34 25.98 -28 27 C-30.31 27 -32.62 27 -35 27 C-35.33 26.34 -35.66 25.68 -36 25 C-35.67 24.01 -35.34 23.02 -35 22 C-35.99 22 -36.98 22 -38 22 C-38 21.01 -38 20.02 -38 19 C-34.535 18.505 -34.535 18.505 -31 18 C-31.33 18.99 -31.66 19.98 -32 21 C-31.34 21 -30.68 21 -30 21 C-30 20.01 -30 19.02 -30 18 C-23.375 17.875 -23.375 17.875 -20 19 C-19.67 17.68 -19.34 16.36 -19 15 C-16.36 15.66 -13.72 16.32 -11 17 C-11.495 15.02 -11.495 15.02 -12 13 C-11.01 13 -10.02 13 -9 13 C-8.67 11.68 -8.34 10.36 -8 9 C-7.01 9 -6.02 9 -5 9 C-4.67 6.69 -4.34 4.38 -4 2 C-2.68 2 -1.36 2 0 2 C0 1.34 0 0.68 0 0 Z " fill="#AA12C3" transform="translate(64,10)"/>
<path d="M0 0 C1.32 0.66 2.64 1.32 4 2 C3.67 3.98 3.34 5.96 3 8 C5.475 8.495 5.475 8.495 8 9 C7.34 9.33 6.68 9.66 6 10 C6 10.99 6 11.98 6 13 C7.32 12.01 8.64 11.02 10 10 C10 10.99 10 11.98 10 13 C10.99 12.67 11.98 12.34 13 12 C13.495 13.485 13.495 13.485 14 15 C15.23363281 15.18175781 15.23363281 15.18175781 16.4921875 15.3671875 C22.73758959 16.30471899 28.91492041 17.32925358 35.07421875 18.73046875 C37.07920401 19.19659463 37.07920401 19.19659463 39 18 C39.495 18.99 39.495 18.99 40 20 C40.33 19.34 40.66 18.68 41 18 C42.65 18 44.3 18 46 18 C46 28.89 46 39.78 46 51 C45.67 51 45.34 51 45 51 C44.83178895 48.4167588 44.66537483 45.83342301 44.5 43.25 C44.45230469 42.52039062 44.40460938 41.79078125 44.35546875 41.0390625 C44.14183103 37.68189836 44 34.36563724 44 31 C41.35261084 29.5393715 40.10551666 29 37 29 C37 28.34 37 27.68 37 27 C37.66 27 38.32 27 39 27 C38.01 25.515 38.01 25.515 37 24 C36.67 26.31 36.34 28.62 36 31 C36.66 31 37.32 31 38 31 C37.67 33.31 37.34 35.62 37 38 C36.34 38 35.68 38 35 38 C35.33 38.99 35.66 39.98 36 41 C36.02172852 42.99291992 36.02172852 42.99291992 35.87890625 45.23046875 C35.83056641 46.03291016 35.78222656 46.83535156 35.73242188 47.66210938 C35.64831055 48.91217773 35.64831055 48.91217773 35.5625 50.1875 C35.51029297 51.03248047 35.45808594 51.87746094 35.40429688 52.74804688 C35.27476311 54.83236299 35.13806823 56.91623182 35 59 C34.67 59 34.34 59 34 59 C33.67 49.1 33.34 39.2 33 29 C26.07 28.505 26.07 28.505 19 28 C9.0738385 24.72763906 9.0738385 24.72763906 6 21 C6 20.34 6 19.68 6 19 C5.01 18.67 4.02 18.34 3 18 C3 16.68 3 15.36 3 14 C2.01 14 1.02 14 0 14 C-0.33 14.99 -0.66 15.98 -1 17 C-1.99 17 -2.98 17 -4 17 C-4 17.99 -4 18.98 -4 20 C-8.89277899 24.09628009 -8.89277899 24.09628009 -12.875 23.75 C-13.57625 23.5025 -14.2775 23.255 -15 23 C-15 23.99 -15 24.98 -15 26 C-16.98 26 -18.96 26 -21 26 C-21 25.01 -21 24.02 -21 23 C-19.68 23.33 -18.36 23.66 -17 24 C-17 23.34 -17 22.68 -17 22 C-18.98 21.67 -20.96 21.34 -23 21 C-23.12375 21.639375 -23.2475 22.27875 -23.375 22.9375 C-23.58125 23.618125 -23.7875 24.29875 -24 25 C-24.66 25.33 -25.32 25.66 -26 26 C-26 25.34 -26 24.68 -26 24 C-26.99 24 -27.98 24 -29 24 C-28.67 24.99 -28.34 25.98 -28 27 C-30.31 27 -32.62 27 -35 27 C-35.33 26.34 -35.66 25.68 -36 25 C-35.67 24.01 -35.34 23.02 -35 22 C-35.99 22 -36.98 22 -38 22 C-38 21.01 -38 20.02 -38 19 C-34.535 18.505 -34.535 18.505 -31 18 C-31.33 18.99 -31.66 19.98 -32 21 C-31.34 21 -30.68 21 -30 21 C-30 20.01 -30 19.02 -30 18 C-23.375 17.875 -23.375 17.875 -20 19 C-19.67 17.68 -19.34 16.36 -19 15 C-16.36 15.66 -13.72 16.32 -11 17 C-11.33 15.68 -11.66 14.36 -12 13 C-11.01 13 -10.02 13 -9 13 C-8.67 11.68 -8.34 10.36 -8 9 C-7.01 9 -6.02 9 -5 9 C-4.67 6.69 -4.34 4.38 -4 2 C-2.68 2 -1.36 2 0 2 C0 1.34 0 0.68 0 0 Z " fill="#A410BE" transform="translate(64,10)"/>
<path d="M0 0 C1.51400391 0.01740234 1.51400391 0.01740234 3.05859375 0.03515625 C4.07050781 0.04417969 5.08242188 0.05320312 6.125 0.0625 C7.29869141 0.07990234 7.29869141 0.07990234 8.49609375 0.09765625 C8.16609375 0.75765625 7.83609375 1.41765625 7.49609375 2.09765625 C6.17609375 1.76765625 4.85609375 1.43765625 3.49609375 1.09765625 C3.49609375 2.08765625 3.49609375 3.07765625 3.49609375 4.09765625 C4.48609375 4.09765625 5.47609375 4.09765625 6.49609375 4.09765625 C6.49609375 5.41765625 6.49609375 6.73765625 6.49609375 8.09765625 C8.47609375 8.09765625 10.45609375 8.09765625 12.49609375 8.09765625 C12.49609375 7.43765625 12.49609375 6.77765625 12.49609375 6.09765625 C13.81609375 6.42765625 15.13609375 6.75765625 16.49609375 7.09765625 C17.15609375 5.77765625 17.81609375 4.45765625 18.49609375 3.09765625 C21.46609375 3.59265625 21.46609375 3.59265625 24.49609375 4.09765625 C24.49609375 4.75765625 24.49609375 5.41765625 24.49609375 6.09765625 C23.17609375 6.42765625 21.85609375 6.75765625 20.49609375 7.09765625 C20.82609375 7.75765625 21.15609375 8.41765625 21.49609375 9.09765625 C15.06109375 9.59265625 15.06109375 9.59265625 8.49609375 10.09765625 C8.49609375 11.08765625 8.49609375 12.07765625 8.49609375 13.09765625 C7.83609375 13.09765625 7.17609375 13.09765625 6.49609375 13.09765625 C6.82609375 14.74765625 7.15609375 16.39765625 7.49609375 18.09765625 C6.83609375 18.09765625 6.17609375 18.09765625 5.49609375 18.09765625 C3.55099375 15.18000625 3.04333058 13.4722834 2.49609375 10.09765625 C2.16609375 11.08765625 1.83609375 12.07765625 1.49609375 13.09765625 C0.83609375 13.75765625 0.17609375 14.41765625 -0.50390625 15.09765625 C-1.41664423 18.47478679 -1.60354129 21.61042992 -1.50390625 25.09765625 C-0.51390625 25.09765625 0.47609375 25.09765625 1.49609375 25.09765625 C1.49609375 25.75765625 1.49609375 26.41765625 1.49609375 27.09765625 C0.17609375 27.42765625 -1.14390625 27.75765625 -2.50390625 28.09765625 C-1.51390625 28.42765625 -0.52390625 28.75765625 0.49609375 29.09765625 C-0.16390625 32.72765625 -0.82390625 36.35765625 -1.50390625 40.09765625 C-2.98890625 40.59265625 -2.98890625 40.59265625 -4.50390625 41.09765625 C-5.49197086 31.15024901 -5.51752653 21.56467652 -4.62890625 11.59765625 C-4.53818848 10.57663818 -4.4474707 9.55562012 -4.35400391 8.50366211 C-3.53982288 0.13805861 -3.53982288 0.13805861 0 0 Z " fill="#9A0EB4" transform="translate(22.50390625,27.90234375)"/>
<path d="M0 0 C8.05890786 4.15387888 8.05890786 4.15387888 10 8.8125 C10.33 9.864375 10.66 10.91625 11 12 C9.61987977 13.20572596 8.22017172 14.38905751 6.8125 15.5625 C6.03519531 16.22378906 5.25789063 16.88507813 4.45703125 17.56640625 C2 19 2 19 -0.5625 18.90625 C-3.19477628 17.92758318 -4.75543352 16.83322793 -6.8125 14.9375 C-7.41707031 14.38964844 -8.02164063 13.84179688 -8.64453125 13.27734375 C-9.09183594 12.85582031 -9.53914063 12.43429688 -10 12 C-8.62968895 6.34746692 -4.32310587 3.4886459 0 0 Z " fill="#AB13C3" transform="translate(64,73)"/>
<path d="M0 0 C0.33 0.66 0.66 1.32 1 2 C1.8971875 2.2165625 1.8971875 2.2165625 2.8125 2.4375 C5.49833166 3.12814243 6.97440717 4.11410323 9 6 C9.859375 7.80859375 9.859375 7.80859375 10 10 C8.34765625 12.359375 8.34765625 12.359375 6.0625 14.75 C5.31097656 15.54921875 4.55945313 16.3484375 3.78515625 17.171875 C3.19605469 17.77515625 2.60695313 18.3784375 2 19 C-2.76622549 17.9981819 -5.61375334 15.5774531 -8.8125 11.9375 C-10 10 -10 10 -10 7 C-9.34 7 -8.68 7 -8 7 C-7.67 6.34 -7.34 5.68 -7 5 C-5.35 5 -3.7 5 -2 5 C-2 4.01 -2 3.02 -2 2 C-1.34 2 -0.68 2 0 2 C0 1.34 0 0.68 0 0 Z " fill="#A512BF" transform="translate(64,37)"/>
<path d="M0 0 C2.46484375 0.875 2.46484375 0.875 5 2 C5.3721042 3.32303717 5.70630173 4.65737935 6 6 C7.84971696 7.05021103 7.84971696 7.05021103 10 8 C11.37086915 9.29470975 12.71340837 10.62150897 14 12 C11.53846154 18.64615385 11.53846154 18.64615385 8.8125 20.4375 C8.214375 20.623125 7.61625 20.80875 7 21 C7 21.66 7 22.32 7 23 C6.01 23.33 5.02 23.66 4 24 C-1.12146904 16.31779644 -0.3881303 8.88387128 0 0 Z " fill="#A611BF" transform="translate(41,51)"/>
<path d="M0 0 C0.99 0.66 1.98 1.32 3 2 C3.94631647 8.71699143 3.90340946 15.30752787 0 21 C-3.21524305 19.59155282 -5.32183868 17.89655214 -7.75 15.375 C-8.36359375 14.74335937 -8.9771875 14.11171875 -9.609375 13.4609375 C-10.06828125 12.97882813 -10.5271875 12.49671875 -11 12 C-8.47295673 6.78797325 -4.38226641 3.6119868 0 0 Z " fill="#A912C2" transform="translate(84,53)"/>
<path d="M0 0 C3.04386724 -0.08226668 5.07175348 0.02391783 8 1 C8 1.99 8 2.98 8 4 C8.66 4 9.32 4 10 4 C10 3.34 10 2.68 10 2 C14.34807375 2.51153809 17.97127652 3.32136522 22 5 C22.99 5 23.98 5 25 5 C25 5.66 25 6.32 25 7 C26.32 7 27.64 7 29 7 C30.12980563 17.81137083 29.79688494 28.18688437 29 39 C28.67 39 28.34 39 28 39 C27.67 29.1 27.34 19.2 27 9 C20.07 8.505 20.07 8.505 13 8 C3.22610294 4.8852416 3.22610294 4.8852416 0 0 Z " fill="#930AB7" transform="translate(70,30)"/>
<path d="M0 0 C1.51400391 0.01740234 1.51400391 0.01740234 3.05859375 0.03515625 C4.07050781 0.04417969 5.08242188 0.05320312 6.125 0.0625 C7.29869141 0.07990234 7.29869141 0.07990234 8.49609375 0.09765625 C8.16609375 0.75765625 7.83609375 1.41765625 7.49609375 2.09765625 C6.17609375 2.09765625 4.85609375 2.09765625 3.49609375 2.09765625 C3.16609375 3.08765625 2.83609375 4.07765625 2.49609375 5.09765625 C1.83609375 5.09765625 1.17609375 5.09765625 0.49609375 5.09765625 C0.49609375 4.10765625 0.49609375 3.11765625 0.49609375 2.09765625 C-0.16390625 1.76765625 -0.82390625 1.43765625 -1.50390625 1.09765625 C-2.39180148 7.09094906 -2.90573021 13.03484183 -2.50390625 19.09765625 C-2.17390625 19.42765625 -1.84390625 19.75765625 -1.50390625 20.09765625 C-1.46326793 21.7638274 -1.46118525 23.4315372 -1.50390625 25.09765625 C-0.51390625 25.09765625 0.47609375 25.09765625 1.49609375 25.09765625 C1.49609375 25.75765625 1.49609375 26.41765625 1.49609375 27.09765625 C0.17609375 27.42765625 -1.14390625 27.75765625 -2.50390625 28.09765625 C-1.51390625 28.42765625 -0.52390625 28.75765625 0.49609375 29.09765625 C-0.16390625 32.72765625 -0.82390625 36.35765625 -1.50390625 40.09765625 C-2.98890625 40.59265625 -2.98890625 40.59265625 -4.50390625 41.09765625 C-5.49197086 31.15024901 -5.51752653 21.56467652 -4.62890625 11.59765625 C-4.53818848 10.57663818 -4.4474707 9.55562012 -4.35400391 8.50366211 C-3.53982288 0.13805861 -3.53982288 0.13805861 0 0 Z " fill="#8006AE" transform="translate(22.50390625,27.90234375)"/>
<path d="M0 0 C1.32 0.66 2.64 1.32 4 2 C3.67 2.99 3.34 3.98 3 5 C3 4.34 3 3.68 3 3 C2.34 3 1.68 3 1 3 C0.67 4.65 0.34 6.3 0 8 C1.32 8.33 2.64 8.66 4 9 C3.67 10.65 3.34 12.3 3 14 C2.01 14 1.02 14 0 14 C-0.33 14.99 -0.66 15.98 -1 17 C-1.99 17 -2.98 17 -4 17 C-4 17.99 -4 18.98 -4 20 C-7 22 -7 22 -10 22 C-9.67 20.02 -9.34 18.04 -9 16 C-7.35 15.67 -5.7 15.34 -4 15 C-4 14.01 -4 13.02 -4 12 C-2.35 12 -0.7 12 1 12 C-0.32 11.67 -1.64 11.34 -3 11 C-2.67 9.35 -2.34 7.7 -2 6 C-2.66 6 -3.32 6 -4 6 C-4 4.68 -4 3.36 -4 2 C-2.68 2 -1.36 2 0 2 C0 1.34 0 0.68 0 0 Z " fill="#930EB1" transform="translate(64,10)"/>
<path d="M0 0 C0.99 0 1.98 0 3 0 C3.01981934 0.64549805 3.03963867 1.29099609 3.06005859 1.95605469 C3.15546328 4.88777221 3.26507971 7.81879232 3.375 10.75 C3.4059375 11.76578125 3.436875 12.7815625 3.46875 13.828125 C3.50742187 14.8078125 3.54609375 15.7875 3.5859375 16.796875 C3.6173584 17.69760742 3.6487793 18.59833984 3.68115234 19.52636719 C4.01378461 22.10694154 4.80620363 23.71772463 6 26 C6 26.99 6 27.98 6 29 C4.68 28.34 3.36 27.68 2 27 C2 25.68 2 24.36 2 23 C1.01 22.34 0.02 21.68 -1 21 C-0.34 20.34 0.32 19.68 1 19 C0.67 18.01 0.34 17.02 0 16 C0.66 16 1.32 16 2 16 C1.34 15.01 0.68 14.02 0 13 C0 11.68 0 10.36 0 9 C-0.66 9 -1.32 9 -2 9 C-2 8.34 -2 7.68 -2 7 C-1.34 7 -0.68 7 0 7 C-0.2784375 5.824375 -0.2784375 5.824375 -0.5625 4.625 C-1 2 -1 2 0 0 Z " fill="#9F0FBA" transform="translate(28,47)"/>
<path d="M0 0 C1.9375 0.6875 1.9375 0.6875 2.9375 2.6875 C2.36386719 2.45675781 1.79023437 2.22601563 1.19921875 1.98828125 C-1.14665589 1.43421637 -1.14665589 1.43421637 -3.16796875 2.98046875 C-3.85503906 3.60566406 -4.54210938 4.23085937 -5.25 4.875 C-5.94480469 5.48730469 -6.63960937 6.09960938 -7.35546875 6.73046875 C-9.138509 8.77464076 -9.66898472 10.03861359 -10.0625 12.6875 C-5.28956711 17.1180565 -5.28956711 17.1180565 0.6875 18.6875 C3.85829002 17.2800279 3.85829002 17.2800279 6.9375 15.6875 C6.9375 16.3475 6.9375 17.0075 6.9375 17.6875 C3.61622149 20.45523209 1.95318308 21.76273578 -2.4375 21.4375 C-3.30375 21.19 -4.17 20.9425 -5.0625 20.6875 C-5.0625 20.0275 -5.0625 19.3675 -5.0625 18.6875 C-5.660625 18.419375 -6.25875 18.15125 -6.875 17.875 C-10.66800459 15.81594037 -10.66800459 15.81594037 -12.0625 13.6875 C-12.19951401 10.05662868 -11.97232055 7.70622675 -9.49609375 4.93359375 C-3.23577921 -0.49026958 -3.23577921 -0.49026958 0 0 Z " fill="#8404B7" transform="translate(65.0625,72.3125)"/>
<path d="M0 0 C0 0.99 0 1.98 0 3 C-0.99 3.495 -0.99 3.495 -2 4 C-2 4.99 -2 5.98 -2 7 C-4.64 6.67 -7.28 6.34 -10 6 C-10.33 6.99 -10.66 7.98 -11 9 C-14.3 8.67 -17.6 8.34 -21 8 C-21 8.99 -21 9.98 -21 11 C-21.66 11 -22.32 11 -23 11 C-22.67 9.35 -22.34 7.7 -22 6 C-20.96359375 5.81824219 -19.9271875 5.63648438 -18.859375 5.44921875 C-17.48947796 5.19588163 -16.11969194 4.9419437 -14.75 4.6875 C-14.06808594 4.56955078 -13.38617188 4.45160156 -12.68359375 4.33007812 C-7.95463392 3.43478961 -4.48819397 0 0 0 Z " fill="#8105AE" transform="translate(55,20)"/>
<path d="M0 0 C0.05410136 3.06273831 0.09372225 6.12451452 0.125 9.1875 C0.14175781 10.05181641 0.15851563 10.91613281 0.17578125 11.80664062 C0.24044864 20.24573472 0.24044864 20.24573472 -2 24 C-4.625 24.8125 -4.625 24.8125 -7 25 C-7 24.01 -7 23.02 -7 22 C-6.01 22.33 -5.02 22.66 -4 23 C-2.04968308 18.92276266 -1.78418029 15.68307578 -1.875 11.1875 C-1.90207031 9.44533203 -1.90207031 9.44533203 -1.9296875 7.66796875 C-1.95289062 6.78753906 -1.97609375 5.90710937 -2 5 C-5.23877584 4.65083807 -5.23877584 4.65083807 -7.5625 7.5 C-8.366875 8.325 -9.17125 9.15 -10 10 C-10.66 10 -11.32 10 -12 10 C-10.63746417 6.88175879 -9.14891747 4.95262649 -6.5625 2.75 C-5.66724609 1.96882813 -5.66724609 1.96882813 -4.75390625 1.171875 C-3 0 -3 0 0 0 Z " fill="#960CB9" transform="translate(88,50)"/>
<path d="M0 0 C2.27773576 0.77189934 3.91116981 1.7494695 5.859375 3.15234375 C6.47296875 3.58417969 7.0865625 4.01601563 7.71875 4.4609375 C8.40710938 5.08162109 8.40710938 5.08162109 9.109375 5.71484375 C9.109375 6.37484375 9.109375 7.03484375 9.109375 7.71484375 C12.079375 8.20984375 12.079375 8.20984375 15.109375 8.71484375 C15.109375 9.04484375 15.109375 9.37484375 15.109375 9.71484375 C7.359375 8.96484375 7.359375 8.96484375 5.109375 6.71484375 C3.789375 6.71484375 2.469375 6.71484375 1.109375 6.71484375 C0.449375 6.71484375 -0.210625 6.71484375 -0.890625 6.71484375 C-0.890625 5.39484375 -0.890625 4.07484375 -0.890625 2.71484375 C-1.880625 2.05484375 -2.870625 1.39484375 -3.890625 0.71484375 C-1.890625 -0.28515625 -1.890625 -0.28515625 0 0 Z " fill="#8908B1" transform="translate(70.890625,16.28515625)"/>
<path d="M0 0 C0.66 0 1.32 0 2 0 C3 3 3 3 1.9375 5.3125 C-0.40819637 8.56620786 -2.70962673 11.65209546 -6 14 C-8.75 14.125 -8.75 14.125 -11 13 C-12.375 11.1875 -12.375 11.1875 -13 9 C-12.625 6.75 -12.625 6.75 -12 5 C-10.68 7.31 -9.36 9.62 -8 12 C-7.34 12 -6.68 12 -6 12 C-6 11.34 -6 10.68 -6 10 C-5.195625 9.236875 -4.39125 8.47375 -3.5625 7.6875 C-0.92701463 4.92345437 -0.31813933 3.71162552 0 0 Z " fill="#8403B7" transform="translate(54,62)"/>
<path d="M0 0 C4.54951717 1.2696327 7.40691022 2.97424018 11 6 C12.31138904 6.70885894 13.63777017 7.39456452 15 8 C15 7.34 15 6.68 15 6 C16.32 5.67 17.64 5.34 19 5 C18.67 5.66 18.34 6.32 18 7 C17.34 7 16.68 7 16 7 C16 7.66 16 8.32 16 9 C13.86328125 9.7734375 13.86328125 9.7734375 11 10 C8.10546875 8.1640625 8.10546875 8.1640625 5.1875 5.625 C4.21167969 4.79226562 3.23585937 3.95953125 2.23046875 3.1015625 C1.49441406 2.40804687 0.75835937 1.71453125 0 1 C0 0.67 0 0.34 0 0 Z " fill="#8905BA" transform="translate(52,96)"/>
<path d="M0 0 C1.32 0.66 2.64 1.32 4 2 C4.375 4.125 4.375 4.125 4 7 C2.25677649 9.29739641 0.30361963 11.26333339 -2 13 C-2.66 13 -3.32 13 -4 13 C-4 13.66 -4 14.32 -4 15 C-5.32 14.67 -6.64 14.34 -8 14 C-7.51789063 13.61328125 -7.03578125 13.2265625 -6.5390625 12.828125 C-5.90742187 12.30734375 -5.27578125 11.7865625 -4.625 11.25 C-3.99851562 10.73953125 -3.37203125 10.2290625 -2.7265625 9.703125 C-0.89005324 7.89154573 0.07171205 6.3980772 1 4 C0.70194993 1.80252869 0.70194993 1.80252869 0 0 Z " fill="#8405B5" transform="translate(72,42)"/>
<path d="M0 0 C0.66 0 1.32 0 2 0 C2 0.99 2 1.98 2 3 C2.99 3 3.98 3 5 3 C5 3.66 5 4.32 5 5 C3.68 5.33 2.36 5.66 1 6 C1.99 6.33 2.98 6.66 4 7 C3.34 10.63 2.68 14.26 2 18 C1.67 18 1.34 18 1 18 C-0.32594359 12.03325384 -0.0884587 6.07416385 0 0 Z " fill="#950CB4" transform="translate(19,50)"/>
<path d="M0 0 C0 4.92046064 -3.74863413 7.54660752 -7 11 C-7.63292969 11.67417969 -8.26585938 12.34835938 -8.91796875 13.04296875 C-13.57422667 17.85807556 -13.57422667 17.85807556 -17 19 C-16.34 17.68 -15.68 16.36 -15 15 C-14.34 15 -13.68 15 -13 15 C-13 14.34 -13 13.68 -13 13 C-11.35546875 11.44921875 -11.35546875 11.44921875 -9.1875 9.6875 C-6.03659012 7.02562022 -3.94627067 4.67628904 -2 1 C-1.34 0.67 -0.68 0.34 0 0 Z " fill="#8505B7" transform="translate(89,81)"/>
<path d="M0 0 C0 0.66 0 1.32 0 2 C-1.65 2.66 -3.3 3.32 -5 4 C-5 4.66 -5 5.32 -5 6 C-6.5625 7.6875 -6.5625 7.6875 -9 9 C-12.75 8.6875 -12.75 8.6875 -16 8 C-16 7.01 -16 6.02 -16 5 C-15.27167969 5.22558594 -14.54335938 5.45117188 -13.79296875 5.68359375 C-10.21014016 6.08948063 -9.15412272 5.19009867 -6.3125 3.0625 C-2.16173121 0 -2.16173121 0 0 0 Z " fill="#8403B7" transform="translate(77,111)"/>
<path d="M0 0 C0.66 0 1.32 0 2 0 C0.47291037 3.43595166 -1.59927045 6.11912454 -4 9 C-3.01 10.65 -2.02 12.3 -1 14 C-4.47899158 12.60840337 -5.48052501 11.36748512 -7 8 C-5.88200014 6.66079162 -4.75538103 5.32877444 -3.625 4 C-2.68527344 2.88625 -2.68527344 2.88625 -1.7265625 1.75 C-1.15679687 1.1725 -0.58703125 0.595 0 0 Z " fill="#A210BE" transform="translate(61,75)"/>
<path d="M0 0 C4.52276645 4.18774671 8.76975984 8.83528009 10 15 C5.238077 11.42855775 2.59116185 8.38164385 0 3 C0 2.01 0 1.02 0 0 Z " fill="#8505B8" transform="translate(34,73)"/>
<path d="M0 0 C1.32 0.66 2.64 1.32 4 2 C3.67 2.99 3.34 3.98 3 5 C3 4.34 3 3.68 3 3 C2.34 3 1.68 3 1 3 C1 4.32 1 5.64 1 7 C-0.65 6.67 -2.3 6.34 -4 6 C-4 4.68 -4 3.36 -4 2 C-2.68 2 -1.36 2 0 2 C0 1.34 0 0.68 0 0 Z " fill="#8209A8" transform="translate(64,10)"/>
<path d="M0 0 C0.66 0 1.32 0 2 0 C1.34 1.65 0.68 3.3 0 5 C2.97 8.465 2.97 8.465 6 12 C0.43478261 10.54820416 0.43478261 10.54820416 -1.4375 8.1875 C-2.13891472 5.45977607 -1.79680372 3.68015798 -1 1 C-0.67 0.67 -0.34 0.34 0 0 Z " fill="#8505B8" transform="translate(74,60)"/>
<path d="M0 0 C3.04386724 -0.08226668 5.07175348 0.02391783 8 1 C8 1.99 8 2.98 8 4 C8.99 4.33 9.98 4.66 11 5 C10.01 5.495 10.01 5.495 9 6 C2.4375 3.65625 2.4375 3.65625 0 0 Z " fill="#900AB4" transform="translate(70,30)"/>
<path d="M0 0 C-0.66 2.64 -1.32 5.28 -2 8 C-2.99 7.67 -3.98 7.34 -5 7 C-4.67 5.68 -4.34 4.36 -4 3 C-4.99 3 -5.98 3 -7 3 C-7 2.01 -7 1.02 -7 0 C-2.25 -1.125 -2.25 -1.125 0 0 Z " fill="#A50FBF" transform="translate(33,29)"/>
<path d="M0 0 C3 1 3 1 4 3 C4.99 3.33 5.98 3.66 7 4 C7 4.66 7 5.32 7 6 C4.69 6.33 2.38 6.66 0 7 C-0.38133299 5.0085944 -0.71325582 3.00720923 -1 1 C-0.67 0.67 -0.34 0.34 0 0 Z " fill="#9C10B4" transform="translate(45,25)"/>
<path d="M0 0 C0 0.99 0 1.98 0 3 C-0.99 3.495 -0.99 3.495 -2 4 C-2 4.99 -2 5.98 -2 7 C-3.9375 6.6875 -3.9375 6.6875 -6 6 C-6.33 5.01 -6.66 4.02 -7 3 C-3.375 0 -3.375 0 0 0 Z " fill="#8C0AB3" transform="translate(55,20)"/>
<path d="M0 0 C0.33 0.66 0.66 1.32 1 2 C1.928125 2.2165625 1.928125 2.2165625 2.875 2.4375 C5.36710392 3.09717457 6.3329446 4.08288629 8 6 C4.98968256 6.93423645 4.13349732 7.04449911 1 6 C1 5.34 1 4.68 1 4 C0.34 3.67 -0.32 3.34 -1 3 C-1.33 3.66 -1.66 4.32 -2 5 C-2 4.01 -2 3.02 -2 2 C-1.34 2 -0.68 2 0 2 C0 1.34 0 0.68 0 0 Z " fill="#9D0FBA" transform="translate(64,37)"/>
<path d="M0 0 C0.66 0.33 1.32 0.66 2 1 C1.01 1.33 0.02 1.66 -1 2 C-1.68486725 3.32407669 -2.34870203 4.65909241 -3 6 C-5 8.25 -5 8.25 -7 10 C-7.66 10 -8.32 10 -9 10 C-7.61811547 6.78956118 -6.07578097 4.95063635 -3.375 2.75 C-2.74335937 2.22921875 -2.11171875 1.7084375 -1.4609375 1.171875 C-0.73777344 0.59179688 -0.73777344 0.59179688 0 0 Z " fill="#8606B7" transform="translate(85,50)"/>
<path d="M0 0 C0.33 0.66 0.66 1.32 1 2 C1.99 2 2.98 2 4 2 C3.40138258 4.35171131 2.73075648 6.6859378 2 9 C1.01 9.495 1.01 9.495 0 10 C0 6.7 0 3.4 0 0 Z " fill="#910DAE" transform="translate(19,37)"/>
<path d="M0 0 C-1.65 1.32 -3.3 2.64 -5 4 C-5 3.01 -5 2.02 -5 1 C-5.66 1 -6.32 1 -7 1 C-7 1.66 -7 2.32 -7 3 C-7.99 3 -8.98 3 -10 3 C-10 2.01 -10 1.02 -10 0 C-6.7169902 -1.6415049 -3.57454967 -0.51888624 0 0 Z " fill="#9B0EB7" transform="translate(91,27)"/>
<path d="M0 0 C0.99 0 1.98 0 3 0 C3 3.3 3 6.6 3 10 C2.67 10 2.34 10 2 10 C2 8.35 2 6.7 2 5 C1.01 5 0.02 5 -1 5 C-0.67 3.35 -0.34 1.7 0 0 Z " fill="#8F0AB5" transform="translate(28,47)"/>
<path d="M0 0 C0.66 0 1.32 0 2 0 C0.68775452 3.93673644 -0.91910327 6.22719294 -4 9 C-4 6 -4 6 -3 4 C-2.34 4 -1.68 4 -1 4 C-0.67 2.68 -0.34 1.36 0 0 Z " fill="#8002B8" transform="translate(94,72)"/>
<path d="M0 0 C1.32 0.33 2.64 0.66 4 1 C4 2.65 4 4.3 4 6 C3.01 6.495 3.01 6.495 2 7 C0.5393715 4.35261084 0 3.10551666 0 0 Z " fill="#9A0CBB" transform="translate(20,69)"/>
<path d="M0 0 C2 2.66666667 4 5.33333333 6 8 C5.67 8.66 5.34 9.32 5 10 C3.96704564 8.90716423 2.94892165 7.80029421 1.9375 6.6875 C1.36902344 6.07261719 0.80054687 5.45773438 0.21484375 4.82421875 C-0.38650391 3.92123047 -0.38650391 3.92123047 -1 3 C-0.67 2.01 -0.34 1.02 0 0 Z " fill="#8906B8" transform="translate(23,76)"/>
<path d="M0 0 C0.33 0.66 0.66 1.32 1 2 C1.99 2 2.98 2 4 2 C3.67 3.98 3.34 5.96 3 8 C2.34 8 1.68 8 1 8 C0.67 5.36 0.34 2.72 0 0 Z " fill="#910DB0" transform="translate(25,30)"/>
</svg>
