<?xml version="1.0" encoding="UTF-8"?>
<svg version="1.1" xmlns="http://www.w3.org/2000/svg" width="128" height="128">
<path d="M0 0 C2.56044387 1.41720041 3.33496275 2.50244412 5 5 C5 5.66 5 6.32 5 7 C5.99 7.33 6.98 7.66 8 8 C9.252119 9.68047551 10.49769669 11.36713677 11.6796875 13.09765625 C14.25687939 16.81094752 17.15534688 20.16646074 20.375 23.34375 C25.69964406 28.73178268 30.47888923 34.725544 34.8125 40.9375 C36.87327578 44 36.87327578 44 39.3125 46.3125 C41 48 41 48 41 50 C42.485 50.495 42.485 50.495 44 51 C45.49779736 59.83700441 45.49779736 59.83700441 43 64 C39.83478038 67.28244997 36.38450295 67.76801572 32 68 C27.9980394 68.07012196 24.00198261 68.04934627 20 68 C19.94956543 68.93312012 19.89913086 69.86624023 19.84716797 70.82763672 C19.26996362 80.80922791 18.43360309 90.74303686 17.38037109 100.68554688 C17.12169459 103.15657518 16.87931676 105.62891023 16.63671875 108.1015625 C16.46974729 109.69541729 16.3018146 111.28917175 16.1328125 112.8828125 C16.02950119 113.97506638 16.02950119 113.97506638 15.92410278 115.08938599 C15.38087861 119.97140709 14.32134761 122.35730478 12 127 C0.12 127 -11.76 127 -24 127 C-27.3752186 120.24956279 -27.3752186 120.24956279 -27.79956055 116.09960938 C-27.89943771 115.17845337 -27.99931488 114.25729736 -28.10221863 113.30822754 C-28.19610367 112.32994995 -28.28998871 111.35167236 -28.38671875 110.34375 C-28.54682182 108.81300842 -28.54682182 108.81300842 -28.7101593 107.25134277 C-28.93307164 105.10024846 -29.15042285 102.94857147 -29.36254883 100.79638672 C-29.68650402 97.51010348 -30.02625203 94.22576283 -30.36914062 90.94140625 C-30.58425327 88.84644842 -30.79847595 86.75139898 -31.01171875 84.65625 C-31.11167648 83.67797241 -31.21163422 82.69969482 -31.31462097 81.69177246 C-31.76459591 77.10767624 -32.12208852 72.61330527 -32 68 C-32.76183594 68.02320312 -33.52367188 68.04640625 -34.30859375 68.0703125 C-50.24841833 68.34891118 -50.24841833 68.34891118 -55.5625 63.8125 C-57.37777094 60.26088295 -57.43024598 57.94392149 -57 54 C-56 51.5625 -56 51.5625 -55 50 C-54.34 50 -53.68 50 -53 50 C-52.7525 49.2575 -52.505 48.515 -52.25 47.75 C-50.87334562 44.72136036 -49.35947355 43.32168839 -47 41 C-45.52216595 39.24540793 -44.06483787 37.47340417 -42.625 35.6875 C-39.5799729 31.93363053 -36.50657851 28.21732406 -33.34375 24.5625 C-31.95961723 22.95304329 -30.60275006 21.32338379 -29.25 19.6875 C-27 17 -27 17 -25 15 C-23.45531967 12.90964455 -21.94465187 10.79723588 -20.4375 8.6796875 C-19.963125 8.12539062 -19.48875 7.57109375 -19 7 C-18.34 7 -17.68 7 -17 7 C-16.731875 6.21625 -16.46375 5.4325 -16.1875 4.625 C-13.25787807 -1.85100637 -6.09904325 -0.83019322 0 0 Z " fill="#F16607" transform="translate(70,1)"/>
<path d="M0 0 C4.82344489 1.33060549 5.84756665 2.91553919 8.625 7 C9.12 8.485 9.12 8.485 9.625 10 C10.223125 10.28875 10.82125 10.5775 11.4375 10.875 C14.36862606 12.38243626 15.78120647 14.30015947 17.625 17 C17.625 17.99 17.625 18.98 17.625 20 C18.285 20 18.945 20 19.625 20 C20.12 21.98 20.12 21.98 20.625 24 C18.1875 23.625 18.1875 23.625 15.625 23 C15.13 22.01 15.13 22.01 14.625 21 C14.00625 21.20625 13.3875 21.4125 12.75 21.625 C12.04875 21.74875 11.3475 21.8725 10.625 22 C9.965 21.34 9.305 20.68 8.625 20 C7.965 20.66 7.305 21.32 6.625 22 C7.45 22.4125 8.275 22.825 9.125 23.25 C9.95 23.8275 10.775 24.405 11.625 25 C11.625 26.32 11.625 27.64 11.625 29 C7.75 28.125 7.75 28.125 6.625 27 C5.635 29.475 5.635 29.475 4.625 32 C2.625 29 2.625 29 3 26.3125 C3.20625 25.549375 3.4125 24.78625 3.625 24 C2.965 23.67 2.305 23.34 1.625 23 C1.295 23.99 0.965 24.98 0.625 26 C0.295 25.67 -0.035 25.34 -0.375 25 C-2.37458364 24.95919217 -4.37545254 24.95745644 -6.375 25 C-5.715 23.35 -5.055 21.7 -4.375 20 C-3.385 20 -2.395 20 -1.375 20 C-1.375 19.34 -1.375 18.68 -1.375 18 C-2.035 18 -2.695 18 -3.375 18 C-3.375 17.34 -3.375 16.68 -3.375 16 C-5.045625 16.2475 -5.045625 16.2475 -6.75 16.5 C-10.375 17 -10.375 17 -12.375 17 C-12.045 17.66 -11.715 18.32 -11.375 19 C-10.385 19 -9.395 19 -8.375 19 C-8.375 20.65 -8.375 22.3 -8.375 24 C-9.365 24 -10.355 24 -11.375 24 C-12.035 23.34 -12.695 22.68 -13.375 22 C-14.365 24.31 -15.355 26.62 -16.375 29 C-18.3125 28.625 -18.3125 28.625 -20.375 28 C-20.705 27.34 -21.035 26.68 -21.375 26 C-22.365 26.33 -23.355 26.66 -24.375 27 C-23.88 25.515 -23.88 25.515 -23.375 24 C-22.385 24 -21.395 24 -20.375 24 C-20.31054688 23.28714844 -20.24609375 22.57429688 -20.1796875 21.83984375 C-19.11793014 18.092768 -17.21181615 16.33326867 -14.5 13.5625 C-10.89624991 9.86944415 -8.64411476 6.60954456 -6.375 2 C-3.375 0 -3.375 0 0 0 Z " fill="#E3600C" transform="translate(64.375,12)"/>
<path d="M0 0 C0.99 0 1.98 0 3 0 C4.07318928 3.21956783 3.870689 3.90421689 3 7 C3 7.99 3 8.98 3 10 C1.88625 10.12375 0.7725 10.2475 -0.375 10.375 C-4.03103677 10.6465813 -4.03103677 10.6465813 -6 13 C-4.453125 12.938125 -4.453125 12.938125 -2.875 12.875 C0.86829627 12.99575149 3.53734547 13.64872018 7 15 C7 15.99 7 16.98 7 18 C0.73 17.67 -5.54 17.34 -12 17 C-10.8023876 11.01193799 -8.68028854 8.91449181 -3.8125 5.4375 C-1.77020545 3.81774915 -0.98732498 2.38603536 0 0 Z " fill="#E15F0A" transform="translate(37,41)"/>
<path d="M0 0 C1.32 0 2.64 0 4 0 C6.7897252 2.91947986 8.71756517 5.15269552 10 9 C10.639375 9.309375 11.27875 9.61875 11.9375 9.9375 C14.45468915 11.2342338 14.96886948 12.4221737 16 15 C13.5625 14.625 13.5625 14.625 11 14 C10.67 13.34 10.34 12.68 10 12 C9.01 12.33 8.02 12.66 7 13 C6.01 12.34 5.02 11.68 4 11 C5 8 5 8 6 7 C6 6.01 6 5.02 6 4 C4.35 4.33 2.7 4.66 1 5 C0.67 3.35 0.34 1.7 0 0 Z " fill="#E15606" transform="translate(64,13)"/>
<path d="M0 0 C2.31 0.33 4.62 0.66 7 1 C7 1.66 7 2.32 7 3 C7.99 3 8.98 3 10 3 C10.33 4.32 10.66 5.64 11 7 C8.5625 6.625 8.5625 6.625 6 6 C5.67 5.34 5.34 4.68 5 4 C3.68 4.33 2.36 4.66 1 5 C0.67 3.35 0.34 1.7 0 0 Z " fill="#DF5B09" transform="translate(74,29)"/>
<path d="M0 0 C0.99 0.33 1.98 0.66 3 1 C2.01 3.97 1.02 6.94 0 10 C-0.99 9.67 -1.98 9.34 -3 9 C-3 8.01 -3 7.02 -3 6 C-2.01 6 -1.02 6 0 6 C-0.2784375 4.7934375 -0.2784375 4.7934375 -0.5625 3.5625 C-0.706875 2.716875 -0.85125 1.87125 -1 1 C-0.67 0.67 -0.34 0.34 0 0 Z " fill="#E05E06" transform="translate(72,43)"/>
<path d="M0 0 C1.32 0 2.64 0 4 0 C4 1.32 4 2.64 4 4 C3.01 4 2.02 4 1 4 C0.67 5.32 0.34 6.64 0 8 C0 5.36 0 2.72 0 0 Z " fill="#E3670B" transform="translate(48,72)"/>
<path d="M0 0 C1.32 0 2.64 0 4 0 C4 0.66 4 1.32 4 2 C3.34 2 2.68 2 2 2 C2.309375 3.423125 2.309375 3.423125 2.625 4.875 C2.74875 5.90625 2.8725 6.9375 3 8 C2.34 8.66 1.68 9.32 1 10 C0.67 6.7 0.34 3.4 0 0 Z " fill="#E25E03" transform="translate(46,58)"/>
<path d="M0 0 C0.99 0 1.98 0 3 0 C3 1.65 3 3.3 3 5 C1.35 5 -0.3 5 -2 5 C-1.34 3.35 -0.68 1.7 0 0 Z " fill="#DC5C04" transform="translate(60,32)"/>
</svg>
