<?xml version="1.0" encoding="UTF-8"?>
<svg version="1.1" xmlns="http://www.w3.org/2000/svg" width="128" height="128">
<path d="M0 0 C1.08796875 -0.00257812 2.1759375 -0.00515625 3.296875 -0.0078125 C4.99457031 0.00378906 4.99457031 0.00378906 6.7265625 0.015625 C7.850625 0.00789062 8.9746875 0.00015625 10.1328125 -0.0078125 C22.005307 0.02025486 22.005307 0.02025486 25.3515625 2.265625 C29.48195883 9.68833572 29.24695028 19.66308242 29.85961914 27.96142578 C30.03925622 30.39324753 30.23404333 32.82348399 30.43164062 35.25390625 C30.55556447 36.82284764 30.67864049 38.39185629 30.80078125 39.9609375 C30.85699142 40.67573273 30.9132016 41.39052795 30.97111511 42.12698364 C31.3171801 46.85207643 31.3984159 51.52778251 31.3515625 56.265625 C32.44855469 56.24242187 33.54554687 56.21921875 34.67578125 56.1953125 C36.1302015 56.17654579 37.58462914 56.15834656 39.0390625 56.140625 C39.76029297 56.12386719 40.48152344 56.10710938 41.22460938 56.08984375 C45.3709046 56.05197804 48.69577177 56.22004077 52.3515625 58.265625 C54.32862979 62.04002619 54.8885667 65.76872378 54.2109375 70.00390625 C52.23862213 75.19468171 47.97028458 79.15603526 44.3515625 83.265625 C42.94701335 85.05046724 41.55065745 86.84179911 40.1640625 88.640625 C37.97292991 91.40676654 35.89809408 93.80140772 33.1015625 95.953125 C30.41026203 98.21626403 29.21207952 100.15271924 27.6171875 103.234375 C25.36564999 106.84795372 22.3695711 109.83150112 19.47265625 112.93359375 C17.34551856 115.17355883 17.34551856 115.17355883 15.77734375 117.51171875 C14.3515625 119.265625 14.3515625 119.265625 11.1015625 120.140625 C6.69727293 120.28743465 4.37802697 120.14001363 0.3515625 118.265625 C-3.71900144 114.45372565 -7.40550814 110.39152646 -10.2265625 105.56640625 C-11.58927638 103.00448719 -11.58927638 103.00448719 -14.6484375 101.265625 C-15.0609375 100.564375 -15.4734375 99.863125 -15.8984375 99.140625 C-18.35713887 95.10132988 -21.50003337 91.77886567 -24.6484375 88.265625 C-26.12735932 86.57980738 -27.59012817 84.88560528 -29.02734375 83.1640625 C-30.24497051 81.73811887 -31.5116584 80.35383813 -32.80078125 78.9921875 C-37.67143399 73.56513331 -39.52922591 69.96038171 -39.22265625 62.61328125 C-38.55964351 59.9025965 -37.85399695 58.93682088 -35.6484375 57.265625 C-32.94127508 56.36323753 -31.41066982 56.14711198 -28.63671875 56.16796875 C-27.50073242 56.17280273 -27.50073242 56.17280273 -26.34179688 56.17773438 C-25.16327148 56.19030273 -25.16327148 56.19030273 -23.9609375 56.203125 C-23.16365234 56.20763672 -22.36636719 56.21214844 -21.54492188 56.21679688 C-19.57939493 56.2285665 -17.61390665 56.24650152 -15.6484375 56.265625 C-15.62861816 55.5221582 -15.60879883 54.77869141 -15.58837891 54.01269531 C-14.88890579 28.93213979 -14.88890579 28.93213979 -13.7734375 16.890625 C-13.70721191 16.09688477 -13.64098633 15.30314453 -13.57275391 14.48535156 C-13.10083001 9.86271109 -12.23288296 6.24446895 -9.6484375 2.265625 C-6.43790172 0.16732333 -3.78673832 0.00864411 0 0 Z " fill="#E02817" transform="translate(56.6484375,3.734375)"/>
<path d="M0 0 C1.08796875 -0.00257812 2.1759375 -0.00515625 3.296875 -0.0078125 C4.99457031 0.00378906 4.99457031 0.00378906 6.7265625 0.015625 C7.850625 0.00789062 8.9746875 0.00015625 10.1328125 -0.0078125 C22.005307 0.02025486 22.005307 0.02025486 25.3515625 2.265625 C29.48195883 9.68833572 29.24695028 19.66308242 29.85961914 27.96142578 C30.03925622 30.39324753 30.23404333 32.82348399 30.43164062 35.25390625 C30.55556447 36.82284764 30.67864049 38.39185629 30.80078125 39.9609375 C30.85699142 40.67573273 30.9132016 41.39052795 30.97111511 42.12698364 C31.3171801 46.85207643 31.3984159 51.52778251 31.3515625 56.265625 C32.44855469 56.24242187 33.54554687 56.21921875 34.67578125 56.1953125 C36.1302015 56.17654579 37.58462914 56.15834656 39.0390625 56.140625 C39.76029297 56.12386719 40.48152344 56.10710938 41.22460938 56.08984375 C45.3709046 56.05197804 48.69577177 56.22004077 52.3515625 58.265625 C54.32862979 62.04002619 54.8885667 65.76872378 54.2109375 70.00390625 C52.23862213 75.19468171 47.97028458 79.15603526 44.3515625 83.265625 C42.94701335 85.05046724 41.55065745 86.84179911 40.1640625 88.640625 C37.97292991 91.40676654 35.89809408 93.80140772 33.1015625 95.953125 C30.41026203 98.21626403 29.21207952 100.15271924 27.6171875 103.234375 C25.36564999 106.84795372 22.3695711 109.83150112 19.47265625 112.93359375 C17.34551856 115.17355883 17.34551856 115.17355883 15.77734375 117.51171875 C14.3515625 119.265625 14.3515625 119.265625 11.1015625 120.140625 C6.69727293 120.28743465 4.37802697 120.14001363 0.3515625 118.265625 C-3.71900144 114.45372565 -7.40550814 110.39152646 -10.2265625 105.56640625 C-11.58927638 103.00448719 -11.58927638 103.00448719 -14.6484375 101.265625 C-15.0609375 100.564375 -15.4734375 99.863125 -15.8984375 99.140625 C-18.35713887 95.10132988 -21.50003337 91.77886567 -24.6484375 88.265625 C-26.12735932 86.57980738 -27.59012817 84.88560528 -29.02734375 83.1640625 C-30.24497051 81.73811887 -31.5116584 80.35383813 -32.80078125 78.9921875 C-37.67143399 73.56513331 -39.52922591 69.96038171 -39.22265625 62.61328125 C-38.55964351 59.9025965 -37.85399695 58.93682088 -35.6484375 57.265625 C-32.94127508 56.36323753 -31.41066982 56.14711198 -28.63671875 56.16796875 C-27.50073242 56.17280273 -27.50073242 56.17280273 -26.34179688 56.17773438 C-25.16327148 56.19030273 -25.16327148 56.19030273 -23.9609375 56.203125 C-23.16365234 56.20763672 -22.36636719 56.21214844 -21.54492188 56.21679688 C-19.57939493 56.2285665 -17.61390665 56.24650152 -15.6484375 56.265625 C-15.62861816 55.5221582 -15.60879883 54.77869141 -15.58837891 54.01269531 C-14.88890579 28.93213979 -14.88890579 28.93213979 -13.7734375 16.890625 C-13.70721191 16.09688477 -13.64098633 15.30314453 -13.57275391 14.48535156 C-13.10083001 9.86271109 -12.23288296 6.24446895 -9.6484375 2.265625 C-6.43790172 0.16732333 -3.78673832 0.00864411 0 0 Z M-3.6484375 7.265625 C-5.64140348 18.03663945 -6.22975791 28.71921119 -6.7109375 39.640625 C-6.82725706 42.19191691 -6.94562536 44.74307633 -7.06773376 47.2940979 C-7.1426361 48.86666214 -7.21412981 50.43939407 -7.2815094 52.01229858 C-7.31501999 52.73059845 -7.34853058 53.44889832 -7.38305664 54.18896484 C-7.4103334 54.80927582 -7.43761017 55.42958679 -7.4657135 56.06869507 C-7.72190565 59.14894842 -8.21131978 62.20580095 -8.6484375 65.265625 C-15.2484375 65.265625 -21.8484375 65.265625 -28.6484375 65.265625 C-28.6484375 66.915625 -28.6484375 68.565625 -28.6484375 70.265625 C-27.21947855 71.79381127 -27.21947855 71.79381127 -25.2734375 72.828125 C-22.31865024 74.71491687 -21.00989784 75.97542917 -19.6484375 79.265625 C-18.6584375 79.925625 -17.6684375 80.585625 -16.6484375 81.265625 C-16.3184375 82.255625 -15.9884375 83.245625 -15.6484375 84.265625 C-14.33577232 85.61931096 -13.00276425 86.95362096 -11.6484375 88.265625 C-11.1534375 89.255625 -11.1534375 89.255625 -10.6484375 90.265625 C-9.9884375 90.265625 -9.3284375 90.265625 -8.6484375 90.265625 C-8.6484375 90.925625 -8.6484375 91.585625 -8.6484375 92.265625 C-7.1634375 93.255625 -7.1634375 93.255625 -5.6484375 94.265625 C-5.2153125 95.4103125 -5.2153125 95.4103125 -4.7734375 96.578125 C-3.35280926 99.97184803 -1.3980532 101.85971126 1.3515625 104.265625 C2.0115625 104.265625 2.6715625 104.265625 3.3515625 104.265625 C3.6815625 105.585625 4.0115625 106.905625 4.3515625 108.265625 C6.0015625 108.595625 7.6515625 108.925625 9.3515625 109.265625 C10.65087229 107.70947491 11.94070388 106.1454082 13.2265625 104.578125 C13.94585937 103.70800781 14.66515625 102.83789062 15.40625 101.94140625 C17.24624054 99.41049557 18.22748707 97.15610468 19.3515625 94.265625 C21.4765625 92.953125 21.4765625 92.953125 23.3515625 92.265625 C23.3515625 91.605625 23.3515625 90.945625 23.3515625 90.265625 C24.0115625 90.265625 24.6715625 90.265625 25.3515625 90.265625 C25.3515625 89.605625 25.3515625 88.945625 25.3515625 88.265625 C26.0115625 88.265625 26.6715625 88.265625 27.3515625 88.265625 C27.8465625 86.285625 27.8465625 86.285625 28.3515625 84.265625 C29.3415625 84.265625 30.3315625 84.265625 31.3515625 84.265625 C33.58772502 81.98533142 33.58772502 81.98533142 35.7890625 79.078125 C36.55089844 78.11519531 37.31273438 77.15226562 38.09765625 76.16015625 C38.84144531 75.20496094 39.58523437 74.24976562 40.3515625 73.265625 C41.12628906 72.38261719 41.90101562 71.49960938 42.69921875 70.58984375 C43.24449219 69.82285156 43.78976563 69.05585937 44.3515625 68.265625 C44.0215625 67.275625 43.6915625 66.285625 43.3515625 65.265625 C36.7515625 65.265625 30.1515625 65.265625 23.3515625 65.265625 C22.81080539 56.29967894 22.29420439 47.33458946 21.8515625 38.36328125 C21.76825869 36.69596207 21.68492526 35.02864436 21.6015625 33.36132812 C21.47436516 30.81365481 21.34858463 28.26594445 21.2265625 25.71801758 C21.10563048 23.20371809 20.97911567 20.68975234 20.8515625 18.17578125 C20.81611328 17.40823013 20.78066406 16.64067902 20.74414062 15.84986877 C20.60439685 11.92880128 20.60439685 11.92880128 19.3515625 8.265625 C14.19445193 7.21030894 9.14813737 7.14087159 3.9140625 7.203125 C3.18251953 7.20763672 2.45097656 7.21214844 1.69726562 7.21679688 C-0.08467169 7.22844352 -1.86656613 7.24637309 -3.6484375 7.265625 Z " fill="#F60E05" transform="translate(56.6484375,3.734375)"/>
<path d="M0 0 C3.27081471 -0.02902429 6.5415963 -0.04680684 9.8125 -0.0625 C10.74126953 -0.07087891 11.67003906 -0.07925781 12.62695312 -0.08789062 C13.51962891 -0.09111328 14.41230469 -0.09433594 15.33203125 -0.09765625 C16.56530151 -0.10551147 16.56530151 -0.10551147 17.82348633 -0.11352539 C20 0 20 0 23 1 C24.5274639 4.0549278 24.23991832 7.2763314 24.31640625 10.6328125 C24.33718735 11.38464813 24.35796844 12.13648376 24.37937927 12.91110229 C24.44482705 15.31564085 24.50373738 17.72028967 24.5625 20.125 C24.60568977 21.75391771 24.64930421 23.38282422 24.69335938 25.01171875 C24.80050351 29.00769915 24.90178433 33.00379059 25 37 C24.34 37 23.68 37 23 37 C23 35.35 23 33.7 23 32 C21.68 32 20.36 32 19 32 C19.165 31.484375 19.33 30.96875 19.5 30.4375 C20.11721742 27.84327403 20.11721742 27.84327403 20 24.5 C20 21.68482774 20.15465805 19.6416936 21 17 C20.34 16.67 19.68 16.34 19 16 C18.94729537 17.36893239 18.94729537 17.36893239 20 20 C19.01 19.67 18.02 19.34 17 19 C16.34 21.31 15.68 23.62 15 26 C13.02 25.67 11.04 25.34 9 25 C8.67 25.66 8.34 26.32 8 27 C8.66 27.33 9.32 27.66 10 28 C8.02 28 6.04 28 4 28 C4 27.34 4 26.68 4 26 C4.99 26 5.98 26 7 26 C7 25.34 7 24.68 7 24 C6.34 24 5.68 24 5 24 C5 23.34 5 22.68 5 22 C6.32 22.33 7.64 22.66 9 23 C9.66 21.35 10.32 19.7 11 18 C10.54625 18.495 10.0925 18.99 9.625 19.5 C8 21 8 21 6 21 C6 19.68 6 18.36 6 17 C5.34 17 4.68 17 4 17 C4 17.66 4 18.32 4 19 C2.35 19 0.7 19 -1 19 C-0.90460937 20.18335937 -0.80921875 21.36671875 -0.7109375 22.5859375 C0.47462521 38.8603237 0.47462521 38.8603237 -2 47 C-2.33 47 -2.66 47 -3 47 C-2.9051276 42.39560355 -2.79877412 37.7916529 -2.68261719 33.18774414 C-2.64477202 31.627593 -2.60984958 30.06736768 -2.578125 28.50708008 C-2.37905397 18.83036183 -1.78693076 9.53624683 0 0 Z M19 10 C20 12 20 12 20 12 Z " fill="#D32216" transform="translate(53,11)"/>
<path d="M0 0 C3.27081471 -0.02902429 6.5415963 -0.04680684 9.8125 -0.0625 C10.74126953 -0.07087891 11.67003906 -0.07925781 12.62695312 -0.08789062 C13.51962891 -0.09111328 14.41230469 -0.09433594 15.33203125 -0.09765625 C16.56530151 -0.10551147 16.56530151 -0.10551147 17.82348633 -0.11352539 C20 0 20 0 23 1 C24.5274639 4.0549278 24.23991832 7.2763314 24.31640625 10.6328125 C24.33718735 11.38464813 24.35796844 12.13648376 24.37937927 12.91110229 C24.44482705 15.31564085 24.50373738 17.72028967 24.5625 20.125 C24.60568977 21.75391771 24.64930421 23.38282422 24.69335938 25.01171875 C24.80050351 29.00769915 24.90178433 33.00379059 25 37 C24.34 37 23.68 37 23 37 C23 32.71 23 28.42 23 24 C22.34 24 21.68 24 21 24 C21 23.34 21 22.68 21 22 C21.66 22 22.32 22 23 22 C22.67 21.01 22.34 20.02 22 19 C21.9328189 16.4849074 22.00180675 13.98763267 22.0625 11.47265625 C22.00360788 9.14273671 21.66092839 7.22546982 21 5 C19.68 5.33 18.36 5.66 17 6 C17.66 6 18.32 6 19 6 C19 6.66 19 7.32 19 8 C14.05 7.01 9.1 6.02 4 5 C3.34 8.63 2.68 12.26 2 16 C2.66 16.33 3.32 16.66 4 17 C4 17.66 4 18.32 4 19 C2.35 19 0.7 19 -1 19 C-0.90460937 20.18335937 -0.80921875 21.36671875 -0.7109375 22.5859375 C0.47462521 38.8603237 0.47462521 38.8603237 -2 47 C-2.33 47 -2.66 47 -3 47 C-2.9051276 42.39560355 -2.79877412 37.7916529 -2.68261719 33.18774414 C-2.64477202 31.627593 -2.60984958 30.06736768 -2.578125 28.50708008 C-2.37905397 18.83036183 -1.78693076 9.53624683 0 0 Z " fill="#C8190E" transform="translate(53,11)"/>
<path d="M0 0 C3.27081471 -0.02902429 6.5415963 -0.04680684 9.8125 -0.0625 C10.74126953 -0.07087891 11.67003906 -0.07925781 12.62695312 -0.08789062 C13.51962891 -0.09111328 14.41230469 -0.09433594 15.33203125 -0.09765625 C16.56530151 -0.10551147 16.56530151 -0.10551147 17.82348633 -0.11352539 C20 0 20 0 23 1 C24.5274639 4.0549278 24.23991832 7.2763314 24.31640625 10.6328125 C24.33718735 11.38464813 24.35796844 12.13648376 24.37937927 12.91110229 C24.44482705 15.31564085 24.50373738 17.72028967 24.5625 20.125 C24.60568977 21.75391771 24.64930421 23.38282422 24.69335938 25.01171875 C24.80050351 29.00769915 24.90178433 33.00379059 25 37 C24.34 37 23.68 37 23 37 C23 32.71 23 28.42 23 24 C22.34 24 21.68 24 21 24 C21 23.34 21 22.68 21 22 C21.66 22 22.32 22 23 22 C22.67 21.01 22.34 20.02 22 19 C21.93101462 15.41276047 22.00271285 11.83722896 22.0625 8.25 C22.16118808 4.98701628 22.16118808 4.98701628 21 2 C14.4 2 7.8 2 1 2 C0.67 2.66 0.34 3.32 0 4 C0 2.68 0 1.36 0 0 Z " fill="#E6160B" transform="translate(53,11)"/>
<path d="M0 0 C5.94 0 11.88 0 18 0 C18.33 2.31 18.66 4.62 19 7 C18.67 5.68 18.34 4.36 18 3 C16.68 3.33 15.36 3.66 14 4 C14.66 4 15.32 4 16 4 C16 4.66 16 5.32 16 6 C10.72 4.68 5.44 3.36 0 2 C0 1.34 0 0.68 0 0 Z " fill="#C41609" transform="translate(56,13)"/>
<path d="M0 0 C0.33 0 0.66 0 1 0 C1.04241723 2.33294775 1.04092937 4.66702567 1 7 C-0.51421001 8.51421001 -1.92472768 8.21309856 -4.03515625 8.31640625 C-4.84404297 8.35830078 -5.65292969 8.40019531 -6.48632812 8.44335938 C-7.7615332 8.50233398 -7.7615332 8.50233398 -9.0625 8.5625 C-10.34350586 8.62727539 -10.34350586 8.62727539 -11.65039062 8.69335938 C-13.76672037 8.79976702 -15.88333813 8.90041731 -18 9 C-17.67 10.65 -17.34 12.3 -17 14 C-18.32 13.34 -19.64 12.68 -21 12 C-21 10.35 -21 8.7 -21 7 C-14.4 7 -7.8 7 -1 7 C-0.67 4.69 -0.34 2.38 0 0 Z " fill="#E91D0E" transform="translate(49,62)"/>
<path d="M0 0 C0.33 0 0.66 0 1 0 C1.22905387 3.79070573 1.4293694 7.58243414 1.625 11.375 C1.68945312 12.43589844 1.75390625 13.49679688 1.8203125 14.58984375 C2.15367412 21.38208675 1.70342465 27.40961058 0 34 C-0.33 34 -0.66 34 -1 34 C-0.67 22.78 -0.34 11.56 0 0 Z " fill="#E7180A" transform="translate(51,24)"/>
<path d="M0 0 C2.475 0.495 2.475 0.495 5 1 C4.49287967 4.71888239 3.88391785 7.73454239 2 11 C1.34 10.67 0.68 10.34 0 10 C0 6.7 0 3.4 0 0 Z " fill="#D62211" transform="translate(52,31)"/>
<path d="M0 0 C0.66 0 1.32 0 2 0 C1.67 1.65 1.34 3.3 1 5 C0.34 5 -0.32 5 -1 5 C-1.33 5.66 -1.66 6.32 -2 7 C-1.34 7.33 -0.68 7.66 0 8 C-1.98 8 -3.96 8 -6 8 C-6 7.34 -6 6.68 -6 6 C-5.01 6 -4.02 6 -3 6 C-3 5.34 -3 4.68 -3 4 C-3.66 4 -4.32 4 -5 4 C-5 3.34 -5 2.68 -5 2 C-3.02 2.495 -3.02 2.495 -1 3 C-0.67 2.01 -0.34 1.02 0 0 Z " fill="#D01D0E" transform="translate(63,31)"/>
<path d="M0 0 C0.33 0 0.66 0 1 0 C0.94779297 1.15628906 0.94779297 1.15628906 0.89453125 2.3359375 C0.86746094 3.33882812 0.84039062 4.34171875 0.8125 5.375 C0.77769531 6.37273438 0.74289063 7.37046875 0.70703125 8.3984375 C0.85205078 9.68621094 0.85205078 9.68621094 1 11 C1.99 11.66 2.98 12.32 4 13 C4 13.66 4 14.32 4 15 C2.35 15 0.7 15 -1 15 C-1.18451025 4.44191344 -1.18451025 4.44191344 0 0 Z " fill="#D81A0D" transform="translate(53,15)"/>
<path d="M0 0 C4.95 0.99 4.95 0.99 10 2 C10 2.99 10 3.98 10 5 C6.7 4.34 3.4 3.68 0 3 C0 2.01 0 1.02 0 0 Z " fill="#C0190D" transform="translate(58,17)"/>
<path d="M0 0 C0 3.99904969 -1.72586967 5.80200422 -4 9 C-5.9375 8.625 -5.9375 8.625 -8 8 C-8.33 7.34 -8.66 6.68 -9 6 C-7.68 6 -6.36 6 -5 6 C-3.45039499 4.71881303 -3.45039499 4.71881303 -2.25 3 C-1.5075 2.01 -0.765 1.02 0 0 Z " fill="#EC170B" transform="translate(71,106)"/>
<path d="M0 0 C0 3.58912412 -0.66436554 4.10857029 -3 6.6875 C-3.556875 7.31011719 -4.11375 7.93273437 -4.6875 8.57421875 C-5.120625 9.04472656 -5.55375 9.51523438 -6 10 C-6 6.36672806 -5.04413589 4.95264073 -3 2 C-2.01 1.34 -1.02 0.68 0 0 Z " fill="#EB1A0B" transform="translate(79,96)"/>
</svg>
